<?xml version="1.0" encoding="UTF-8" standalone="no"?>
<!-- Generator: Adobe Illustrator 21.0.0, SVG Export Plug-In . SVG Version: 6.00 Build 0)  -->

<svg
   xmlns:dc="http://purl.org/dc/elements/1.1/"
   xmlns:cc="http://creativecommons.org/ns#"
   xmlns:rdf="http://www.w3.org/1999/02/22-rdf-syntax-ns#"
   xmlns:svg="http://www.w3.org/2000/svg"
   xmlns="http://www.w3.org/2000/svg"
   xmlns:sodipodi="http://sodipodi.sourceforge.net/DTD/sodipodi-0.dtd"
   xmlns:inkscape="http://www.inkscape.org/namespaces/inkscape"
   version="1.1"
   id="Layer_1"
   x="0px"
   y="0px"
   viewBox="0 0 1211.5 204.50001"
   xml:space="preserve"
   sodipodi:docname="oplogo.svg"
   width="1211.5"
   height="204.5"
   inkscape:version="0.92.3 (2405546, 2018-03-11)"><metadata
   id="metadata101"><rdf:RDF><cc:Work
       rdf:about=""><dc:format>image/svg+xml</dc:format><dc:type
         rdf:resource="http://purl.org/dc/dcmitype/StillImage" /><dc:title></dc:title></cc:Work></rdf:RDF></metadata><defs
   id="defs99" /><sodipodi:namedview
   pagecolor="#ffffff"
   bordercolor="#666666"
   borderopacity="1"
   objecttolerance="10"
   gridtolerance="10"
   guidetolerance="10"
   inkscape:pageopacity="0"
   inkscape:pageshadow="2"
   inkscape:window-width="640"
   inkscape:window-height="480"
   id="namedview97"
   showgrid="false"
   inkscape:zoom="0.91512027"
   inkscape:cx="417.09659"
   inkscape:cy="101.95001"
   inkscape:current-layer="Layer_1" />
<style
   type="text/css"
   id="style2">
	.st0{fill:#FFFFFF;}
</style>
<g
   id="g94"
   transform="translate(-103.6,-94.6)">
	<g
   id="g34">
		<path
   class="st0"
   d="m 164.8,204.2 c -39.1,0 -61.2,-27.5 -61.2,-54.8 0,-25.8 21,-54.8 61.2,-54.8 40.2,0 61,29.1 61,54.8 0,27.4 -22.7,54.8 -61,54.8 z m 0,-87.3 c -20.3,0 -33.8,13 -33.8,32.5 0,19.5 13.5,32.5 33.8,32.5 20.2,0 33.6,-13 33.6,-32.5 0,-19.5 -13.4,-32.5 -33.6,-32.5 z"
   id="path4"
   inkscape:connector-curvature="0"
   style="fill:#ffffff" />
		<path
   class="st0"
   d="m 256.8,136.9 c 6.4,-5.3 12.8,-7.7 20.7,-7.7 18.8,0 33.5,16 33.5,36.6 0,23.2 -14.1,38.3 -35.5,38.3 -6.4,0 -13.3,-1.9 -18.6,-5 v 39.6 H 234.2 V 130.6 h 22.7 v 6.3 z m 0,47.4 c 4.5,3.3 8.6,4.7 13.1,4.7 11.1,0 18,-8.4 18,-21.9 0,-13.8 -6.3,-21.7 -17.1,-21.7 -4.8,0 -8.4,1.4 -14.1,5.8 v 33.1 z"
   id="path6"
   inkscape:connector-curvature="0"
   style="fill:#ffffff" />
		<path
   class="st0"
   d="m 394.5,194.6 c -13,9.5 -26.6,9.5 -32.2,9.5 -25.3,0 -41.8,-14.7 -41.8,-37.2 0,-22.1 15.8,-37.7 38,-37.7 21,0 38.3,14.9 37.2,41.1 H 344 c 0.8,12.8 9.5,20.3 23.8,20.3 9.1,0 16.1,-2.7 26.8,-10.3 z m -18.8,-36.1 c -0.9,-9.9 -6.9,-15.8 -15.6,-15.8 -8.9,0 -14.7,5.8 -15.6,15.8 z"
   id="path8"
   inkscape:connector-curvature="0"
   style="fill:#ffffff" />
		<path
   class="st0"
   d="m 428.3,141 c 7.2,-8.3 14.2,-11.7 23.5,-11.7 11.3,0 26.3,6.4 26.3,27.7 v 45.8 h -22.7 v -44 c 0,-10.2 -4.9,-14.4 -11.3,-14.4 -5.6,0 -9.9,3 -15.8,11.9 v 46.5 h -22.7 v -72.1 h 22.7 z"
   id="path10"
   inkscape:connector-curvature="0"
   style="fill:#ffffff" />
		<path
   class="st0"
   d="m 581.8,96.1 c 24.4,0 35.4,17.1 35.4,31.6 0,15 -10.6,32.2 -35.2,32.2 h -21.1 v 42.9 H 534.3 V 96.1 Z m -21,44.2 h 12.4 c 12.2,0 16.6,-4.4 16.6,-12.4 0,-9.1 -5.2,-12.4 -19.6,-12.4 h -9.4 z"
   id="path12"
   inkscape:connector-curvature="0"
   style="fill:#ffffff" />
		<path
   class="st0"
   d="m 657,204.2 c -23.6,0 -40.8,-14.9 -40.8,-37.5 0,-24.6 19.6,-37.4 40.8,-37.4 17.7,0 40.5,9.9 40.5,37.5 0,28.6 -24.5,37.4 -40.5,37.4 z m 0,-61.5 c -9.9,0 -16.6,7.7 -16.6,23.9 0,18.6 8,24.1 16.6,24.1 10.6,0 16.3,-8.8 16.3,-24.6 0,-14 -4.9,-23.4 -16.3,-23.4 z"
   id="path14"
   inkscape:connector-curvature="0"
   style="fill:#ffffff" />
		<path
   class="st0"
   d="M 731,202.8 H 708.3 V 96.1 H 731 Z"
   id="path16"
   inkscape:connector-curvature="0"
   style="fill:#ffffff" />
		<path
   class="st0"
   d="M 768.9,237.3 H 744.8 L 765.9,191 737.7,130.6 H 762 l 15.2,37.1 16.3,-37.1 h 23.8 z"
   id="path18"
   inkscape:connector-curvature="0"
   style="fill:#ffffff" />
		<path
   class="st0"
   d="m 880,146.1 h -26.3 v 29.7 c 0,7 4.1,11.6 11.1,11.6 4.7,0 9.1,-1.1 15.2,-4.2 v 16.4 c -8,3.3 -13.9,4.5 -21,4.5 -15,0 -28,-6.9 -28,-27.1 v -31 h -10.3 v -4.4 l 30.2,-33.8 h 2.8 v 22.7 H 880 Z"
   id="path20"
   inkscape:connector-curvature="0"
   style="fill:#ffffff" />
		<path
   class="st0"
   d="m 960.4,194.6 c -13,9.5 -26.6,9.5 -32.2,9.5 -25.3,0 -41.8,-14.7 -41.8,-37.2 0,-22.1 15.8,-37.7 38,-37.7 21,0 38.3,14.9 37.2,41.1 h -51.8 c 0.8,12.8 9.5,20.3 23.8,20.3 9.1,0 16.1,-2.7 26.7,-10.3 z m -18.8,-36.1 c -0.9,-9.9 -6.9,-15.8 -15.6,-15.8 -8.9,0 -14.7,5.8 -15.6,15.8 z"
   id="path22"
   inkscape:connector-curvature="0"
   style="fill:#ffffff" />
		<path
   class="st0"
   d="m 1037.7,199.3 c -9.1,3.3 -16.7,4.9 -24.4,4.9 -25.3,0 -41.8,-14.7 -41.8,-37.2 0,-22.1 17,-37.7 40.8,-37.7 7.4,0 16.7,1.9 24.3,4.7 v 16.9 c -5.9,-3.1 -12.8,-4.9 -18.5,-4.9 -13.6,0 -22.4,8.1 -22.4,20.8 0,12.8 8.6,21.3 21.6,21.3 5.5,0 10.3,-1.3 20.3,-5 z"
   id="path24"
   inkscape:connector-curvature="0"
   style="fill:#ffffff" />
		<path
   class="st0"
   d="m 1074.1,141.3 h 0.3 c 6.6,-8.3 13.9,-12 22.8,-12 13.1,0 26.4,8 26.4,27.5 v 46 H 1101 v -41.1 c 0,-10.8 -4.7,-15.8 -11.7,-15.8 -5.3,0 -9.9,3.3 -15.2,11 v 46 h -22.7 V 96.1 h 22.7 z"
   id="path26"
   inkscape:connector-curvature="0"
   style="fill:#ffffff" />
		<path
   class="st0"
   d="m 1157,141 c 7.2,-8.3 14.2,-11.7 23.5,-11.7 11.3,0 26.3,6.4 26.3,27.7 v 45.8 h -22.7 v -44 c 0,-10.2 -4.8,-14.4 -11.3,-14.4 -5.6,0 -9.9,3 -15.8,11.9 v 46.5 h -22.7 v -72.1 h 22.7 z"
   id="path28"
   inkscape:connector-curvature="0"
   style="fill:#ffffff" />
		<path
   class="st0"
   d="m 1241.8,107.2 c 0,6.9 -5.6,12.5 -12.5,12.5 -6.9,0 -12.5,-5.6 -12.5,-12.5 0,-6.9 5.6,-12.5 12.5,-12.5 6.9,-0.1 12.5,5.6 12.5,12.5 z m -1,95.6 h -22.7 v -72.1 h 22.7 z"
   id="path30"
   inkscape:connector-curvature="0"
   style="fill:#ffffff" />
		<path
   class="st0"
   d="m 1315.1,199.3 c -9.1,3.3 -16.7,4.9 -24.4,4.9 -25.3,0 -41.8,-14.7 -41.8,-37.2 0,-22.1 17.1,-37.7 40.8,-37.7 7.4,0 16.7,1.9 24.2,4.7 v 16.9 c -5.9,-3.1 -12.8,-4.9 -18.5,-4.9 -13.6,0 -22.4,8.1 -22.4,20.8 0,12.8 8.6,21.3 21.6,21.3 5.5,0 10.3,-1.3 20.3,-5 v 16.2 z"
   id="path32"
   inkscape:connector-curvature="0"
   style="fill:#ffffff" />
	</g>
	<g
   id="g38">
		<path
   class="st0"
   d="m 145.2,297.9 0.8,0.7 -9.6,-0.1 v 0 l -20.6,-20 v 20.1 h -0.4 -6.4 v -42.8 h 0.4 6.4 v 18.5 L 133,255.8 h 8.4 l -18.6,20.3 22.4,21.8"
   id="path36"
   inkscape:connector-curvature="0"
   style="fill:#ffffff" />
	</g>
	<g
   id="g42">
		<path
   class="st0"
   d="m 190.2,282.3 v -26.5 h 0.4 6.5 V 281 c 0,4.7 0.6,6.5 2.4,8.3 v 0 c 2.3,2.3 5.2,3.4 8.7,3.4 v 0 c 4.5,0 7.7,-1.4 9.5,-3.3 v 0 c 2,-2 2.5,-4.9 2.5,-8.9 v 0 -24.8 h 0.4 6.4 v 25.9 c 0,10.5 -6.4,17.4 -19,17.4 v 0 c -8.9,0.1 -17.8,-5 -17.8,-16.7 z"
   id="path40"
   inkscape:connector-curvature="0"
   style="fill:#ffffff" />
	</g>
	<g
   id="g46">
		<path
   class="st0"
   d="m 449.7,298.6 h -6.4 v -36.5 h -14.5 v -0.4 -5.8 h 35.9 v 0.4 5.4 0.4 h -14.5 v 36.5 z"
   id="path44"
   inkscape:connector-curvature="0"
   style="fill:#ffffff" />
	</g>
	<g
   id="g50">
		<path
   class="st0"
   d="m 517.8,298.6 h -6.4 v -42.8 h 0.4 6.4 v 42.3 0.4 z"
   id="path48"
   inkscape:connector-curvature="0"
   style="fill:#ffffff" />
	</g>
	<g
   id="g54">
		<path
   class="st0"
   d="m 607.8,298.6 -5.5,-0.1 -27.3,-31.4 v 31.6 h -0.4 -6.1 v -42.8 h 0.4 l 5.1,0.1 27.7,31.6 v -31.8 h 0.4 6.1 v 42.3 0.4 h -0.4 z"
   id="path52"
   inkscape:connector-curvature="0"
   style="fill:#ffffff" />
	</g>
	<g
   id="g58">
		<path
   class="st0"
   d="m 665.1,298.6 h -6.4 v -42.8 h 0.4 6.4 v 42.3 0.4 z"
   id="path56"
   inkscape:connector-curvature="0"
   style="fill:#ffffff" />
	</g>
	<g
   id="g62">
		<path
   class="st0"
   d="m 784.5,298.6 h -6.4 v -36.5 h -14.5 v -0.4 -5.8 h 35.9 v 0.4 5.4 0.4 H 785 v 36.5 z"
   id="path60"
   inkscape:connector-curvature="0"
   style="fill:#ffffff" />
	</g>
	<g
   id="g66">
		<path
   class="st0"
   d="m 845.3,282.3 v -26.5 h 0.4 6.4 V 281 c 0,4.7 0.6,6.5 2.4,8.3 v 0 c 2.3,2.3 5.2,3.4 8.7,3.4 v 0 c 4.5,0 7.7,-1.5 9.5,-3.3 v 0 c 2,-2 2.5,-5 2.5,-8.9 v 0 -24.8 h 0.4 6.4 v 25.9 c 0,10.4 -6.4,17.4 -19,17.4 v 0 c -8.8,0.1 -17.6,-5 -17.7,-16.7 z"
   id="path64"
   inkscape:connector-curvature="0"
   style="fill:#ffffff" />
	</g>
	<g
   id="g72">
		<path
   class="st0"
   d="m 945.6,298.6 h -1.2 m 30,0 h -1.2"
   id="path68"
   inkscape:connector-curvature="0"
   style="fill:#ffffff" />
		<path
   class="st0"
   d="m 974.4,299 h -1.5 L 959.4,265.4 945.8,299 h -0.3 -1.5 l -17.3,-43.1 h 0.6 6.3 l 11.3,28.2 11.3,-28.2 h 0.3 6 l 11.4,28.2 11.2,-28.2 h 0.3 6.6 l -17.3,42.9 -0.1,0.3 h -0.2 z m 0,-0.5 v 0"
   id="path70"
   inkscape:connector-curvature="0"
   style="fill:#ffffff" />
	</g>
	<g
   id="g76">
		<path
   class="st0"
   d="m 1073.5,298.6 h -6.4 v -18.3 h -22.6 v 18.3 h -0.4 -6.4 v -42.8 h 0.4 6.4 v 18.3 h 22.6 v -18.3 h 0.4 6.4 v 42.3 0.4 z"
   id="path74"
   inkscape:connector-curvature="0"
   style="fill:#ffffff" />
	</g>
	<g
   id="g80">
		<path
   class="st0"
   d="m 1124.3,298.6 v -42.8 h 24.6 v 0.4 5.4 0.4 h -17.8 v 11.8 h 17.2 v 0.4 5.8 h -17.2 v 12.2 h 18.3 v 0.4 5.8 h -25.1 z"
   id="path78"
   inkscape:connector-curvature="0"
   style="fill:#ffffff" />
	</g>
	<g
   id="g84">
		<path
   class="st0"
   d="m 1208.1,255.8 c 8.6,0 14.2,4.7 14.2,12.2 v 0 c 0,4.7 -2.4,8.4 -6.6,10.4 v 0 c 3.6,2.6 5.8,6.4 8.8,11.3 v 0 c 1.8,2.9 2.8,4.3 5.7,8.3 v 0 l 0.5,0.7 h -0.8 v 0 h -7.4 l -5.7,-8.8 c -5.6,-8.6 -7.9,-9.4 -10.8,-9.4 v 0 h -2.1 v 18.2 h -0.4 -6.4 v -42.8 h 11 m -0.7,18.3 c 6.2,-0.1 7.8,-3 7.8,-6.3 v 0 -0.1 0 c -0.1,-3.7 -2.1,-5.9 -7.8,-5.9 v 0 h -3.5 v 12.3 z"
   id="path82"
   inkscape:connector-curvature="0"
   style="fill:#ffffff" />
	</g>
	<g
   id="g88">
		<path
   class="st0"
   d="m 287.6,255.8 c 8.6,0 14.2,4.7 14.2,12.2 v 0 c 0,4.7 -2.4,8.4 -6.6,10.4 v 0 c 3.6,2.6 5.8,6.4 8.8,11.3 v 0 c 1.8,2.9 2.8,4.3 5.7,8.3 v 0 l 0.5,0.7 h -0.8 v 0 H 302 l -5.7,-8.8 c -5.6,-8.6 -7.9,-9.4 -10.8,-9.4 v 0 h -2.1 v 18.2 h -0.4 -6.4 v -42.8 h 11 m -0.7,18.3 c 6.2,-0.1 7.8,-3 7.8,-6.3 v 0 -0.1 0 c -0.1,-3.7 -2.1,-5.9 -7.8,-5.9 v 0 h -3.5 v 12.3 z"
   id="path86"
   inkscape:connector-curvature="0"
   style="fill:#ffffff" />
	</g>
	<path
   class="st0"
   d="m 392.8,298 -18.9,-42.4 h -4.8 l -18.4,43 h 7.1 l 5.3,-12.4 h 17.3 l 5.6,12.4 h 7.1 z m -27,-18 5.7,-13.7 6.1,13.7 z"
   id="path90"
   inkscape:connector-curvature="0"
   style="fill:#ffffff" />
	<path
   class="st0"
   d="m 1313.2,298 -18.9,-42.4 h -4.8 l -18.4,43 h 7.1 l 5.3,-12.4 h 17.3 l 5.6,12.4 h 7.1 z m -27,-18 5.7,-13.7 6.1,13.7 z"
   id="path92"
   inkscape:connector-curvature="0"
   style="fill:#ffffff" />
</g>
</svg>