<svg xmlns="http://www.w3.org/2000/svg" width="93" height="20" version="1" viewBox="0 0 280 65"><path fill="#ff8200" d="M207 251c110 0 242 26 242 131 0 75-77 103-146 103C196 485 0 425 0 215 0 110 80 49 208 49c135 0 232 87 262 205C391 118 291 75 209 75 107 75 68 151 68 216c0 185 144 248 235 248 61 0 97-40 97-83 0-119-172-116-250-116h-38l-16-17c36-5 85-15 139-42C347 149 453 0 592 0c51 0 64 15 74 29-69-44-183 32-245 90-51 48-96 103-214 132" transform="matrix(.13333 0 0 -.13333 0 65)"/><path fill="#666" d="M886 310c0 33-22 53-55 53h-77c-2 0-3-1-3-3v-99c0-2 1-3 3-3h77c33 0 55 20 55 52m7-261c-5 0-7 2-8 6l-69 145h-62c-2 0-3-1-3-4V55c0-4-2-6-6-6h-51c-4 0-6 2-6 6v361c0 3 2 5 6 5h139c66 0 115-45 115-111 0-49-27-86-69-102l76-152c2-4 0-7-4-7h-58M1010 416c0 3 3 5 6 5h218c4 0 6-2 6-5v-47c0-3-2-6-6-6h-158c-2 0-3-1-3-3v-91c0-2 1-3 3-3h127c4 0 6-2 6-6v-47c0-3-2-5-6-5h-127c-2 0-3-1-3-3v-95c0-2 1-3 3-3h158c4 0 6-2 6-5V55c0-4-2-6-6-6h-218c-3 0-6 2-6 6v361M1298 416c0 3 2 5 5 5h52c3 0 6-2 6-5V110c0-2 1-3 3-3h147c3 0 5-2 5-5V55c0-4-2-6-5-6h-208c-3 0-5 2-5 6v361M1775 49c-4 0-6 1-8 5l-73 127h-1l-73-127c-2-4-4-5-8-5h-58c-3 0-5 3-3 7l108 185-100 173c-2 4 0 7 3 7h58c4 0 6-2 8-6l65-112h1l65 112c2 4 5 6 9 6h57c4 0 5-3 3-7l-99-173 107-185c2-4 1-7-3-7h-58M1912 295l-2 1v104l-1 1h-32l-2 2v16l2 2h87l2-2v-16l-2-2h-32l-1-1V296l-2-1h-17M1988 419l2 2h16c1 0 2 0 3-2l33-78h1l33 78c1 2 2 2 3 2h16l2-2V296l-2-1h-16l-1 1v78h-1l-26-60-3-2h-11l-3 2-26 60h-1v-78l-2-1h-15l-2 1v123" transform="matrix(.13333 0 0 -.13333 0 65)"/></svg>
