<svg height="36" viewBox="0 0 36 36" width="36" xmlns="http://www.w3.org/2000/svg"><g fill="none" fill-rule="evenodd"><rect fill="#2094f2" height="36" rx="4" width="36"/><path d="m8 24.1997143c.30884615.036.65238462.054 1.03146154.054 1.98338466 0 3.75099996-.6162857 5.30199996-1.848-.9256923-.018-1.7540769-.306-2.486-.864-.731923-.558-1.2336923-1.2702857-1.507-2.136.291077.0445714.5601539.0668571.8063847.0668571.3790769 0 .753923-.0488571 1.1236923-.1474285-.9874616-.2048572-1.8048462-.7028572-2.45215388-1.4931429-.6473077-.7902857-.97138462-1.7074286-.97138462-2.7522857v-.054c.59907692.3394286 1.2421538.5228571 1.9300769.5494286-.5813077-.3934286-1.04415382-.9068572-1.38853844-1.5402858-.34438461-.6334285-.51615384-1.3208571-.51530769-2.0622857 0-.786.19376923-1.5137143.58215385-2.18314283 1.06699998 1.33028573 2.36499998 2.39485713 3.89399998 3.19457143s3.1663077 1.2437143 4.9119231 1.3328571c-.0702308-.3394285-.1057692-.6694285-.1057692-.9908571 0-1.1965714.4163077-2.2165714 1.2497692-3.06.8334615-.84342857 1.8403846-1.26514286 3.0207692-1.266 1.2345385 0 2.2744616.45514286 3.1197693 1.3662857.9603846-.1877143 1.8640769-.53571427 2.7102307-1.04485713-.3257692 1.02685713-.9519231 1.82142853-1.8776154 2.38371433.8199231-.0891429 1.639-.312 2.4589231-.6694286-.5906154.8751428-1.3047692 1.62-2.1416154 2.2362857.0093077.1251429.0135385.3128571.0135385.5622857 0 1.1605714-.1675385 2.3194286-.5026154 3.4757143s-.8444615 2.2662857-1.5273077 3.3282857c-.6828461 1.062-1.496 2.0022857-2.4394615 2.8191429-.9434616.8168571-2.0798462 1.4691428-3.4108462 1.9551428s-2.7542307.7294286-4.2705384.7302857c-2.3886923 0-4.57430773-.6471428-6.55769235-1.9422857z" fill="#fff"/></g></svg>