<svg height="36" viewBox="0 0 36 36" width="36" xmlns="http://www.w3.org/2000/svg"><g fill="none" fill-rule="evenodd"><rect fill="#cd1d20" height="36" rx="4" width="36"/><path d="m18.3145025 7.2941149c2.3788665 0 4.3391994.74154912 5.8810573 2.2246696 1.5418579 1.4831205 2.3127753 3.208507 2.3127753 5.1762115 0 2.5844475-.6534443 4.713648-1.9603524 6.3876652-1.3069082 1.6740171-2.9882423 2.5110132-5.0440529 2.5110132-.6754806 0-1.3142407-.1541835-1.9162995-.4625551s-1.0205569-.6975013-1.2555066-1.1674009c-.4992683 1.9970731-.7929511 3.1864886-.8810573 3.568282-.3230559 1.1453801-1.1013154 2.5550577-2.3348018 4.2290748-.0587374.0587375-.124816.0807637-.1982378.0660793-.0734219-.0146843-.1101322-.0513947-.1101322-.1101321-.2349498-2.2026542-.2202656-3.847278.0440529-4.9339207l1.6740088-7.0484582c-.2936873-.5580057-.4405287-1.2481603-.4405287-2.0704845 0-.9397992.2422884-1.7327428.7268723-2.3788547s1.0792916-.969163 1.7841409-.969163c.5580058 0 .9838459.1835518 1.2775331.5506608.2936872.3671091.4405286.8296595.4405286 1.3876652 0 .3524247-.0587365.7782648-.1762114 1.2775331-.1174749.4992682-.2790005 1.0792918-.4845815 1.7400881-.2055811.6607962-.3524225 1.1967674-.4405287 1.6079295-.1762123.6754806-.0513971 1.2555042.3744494 1.7400881s.9765017.7268722 1.6519824.7268722c1.2041176 0 2.187955-.6681284 2.9515418-2.0044053.7635868-1.3362768 1.1453745-2.9588744 1.1453745-4.8678414 0-1.4684361-.4772346-2.6651936-1.4317181-3.5903083-.9544835-.92511479-2.2687141-1.38766523-3.9427313-1.38766523-1.9089669 0-3.4508017.60939183-4.6255506 1.82819383s-1.7621146 2.679874-1.7621146 4.3832599c0 1.0279053.2789987 1.8795855.8370044 2.5550661.2055811.2055811.2790018.4405273.2202643.7048458l-.2643171 1.0132159c-.0881062.3524246-.3083683.4698978-.660793.3524229-.5873744-.2349498-1.0792932-.6093954-1.4757709-1.123348-.39647777-.5139527-.69016059-1.0939763-.88105729-1.7400881-.19089669-.6461119-.28634361-1.3362666-.28634361-2.0704846 0-.9691679.1982359-1.916295.59471366-2.8414097.39647774-.9251148.96181714-1.784137 1.69603524-2.57709253.7342181-.79295551 1.7107134-1.43905771 2.9295154-1.93832599 1.218802-.49926829 2.5624009-.74889868 4.030837-.74889868z" fill="#fff"/></g></svg>