<svg xmlns="http://www.w3.org/2000/svg" viewBox="0 0 1715.73 440.07"><defs><style>.cls-1{fill:#2b5458;}.cls-2{fill:#46b39c;}.cls-3{fill:#98d5c8;}.cls-4{fill:#5bbba7;}.cls-5{fill:#31aa91;}.cls-6{fill:#319080;}.cls-7{fill:#3d9688;}.cls-8{fill:#0d7c6a;}.cls-9{fill:#666;}</style></defs><title>From-EmeraldWorks-horizontal</title><g id="Layer_2" data-name="Layer 2"><g id="Layer_1-2" data-name="Layer 1"><path class="cls-1" d="M1050.68,85.65c30.58,0,45.89,24.07,45.89,51.26,0,2.47-.45,6.07-.45,6.07H1006c0,32.61,22,51.27,48.12,51.27a50.82,50.82,0,0,0,34.84-14.18l5.22,7.88s-15.75,15.51-40.06,15.51c-31.69,0-58-22.94-58-58.68,0-38,25.87-59.13,54.64-59.13m36,48.57c-1.13-27.42-17.55-39.8-36.21-39.8-20.68,0-39.79,13.49-43.8,39.8Z"/><path class="cls-1" d="M1117,88.36h9.38v19.81a46.14,46.14,0,0,1-.9,9.23h.45c5.63-16.86,25.64-31.7,43.17-31.7,22.46,0,33.06,10.57,35.53,30.57h.45c6.25-15.73,23.38-30.57,42.75-30.57,29,0,37.54,17.08,37.54,43.8v71.26H1276V132.87c0-21.14-4.26-38.44-28.1-38.44-18.66,0-34.63,16.63-39.62,34.17a58.91,58.91,0,0,0-2.26,17.31v54.85h-9.39V132.87c0-19.34-2.69-38.44-27.44-38.44-20,0-35.75,17.53-40.91,36.19a56.33,56.33,0,0,0-1.8,15.29v54.85h-9.39Z"/><path class="cls-1" d="M1358.93,85.65c30.59,0,45.88,24.07,45.88,51.26,0,2.47-.44,6.07-.44,6.07h-90.16c0,32.61,22,51.27,48.11,51.27a50.87,50.87,0,0,0,34.86-14.18l5.22,7.88s-15.75,15.51-40,15.51c-31.69,0-58-22.94-58-58.68,0-38,25.86-59.13,54.62-59.13m36,48.57c-1.12-27.42-17.53-39.8-36.2-39.8-20.68,0-39.79,13.49-43.8,39.8Z"/><path class="cls-1" d="M1425.26,88.36h9.44v21.36a46.57,46.57,0,0,1-.89,9.2h.45c5.63-17.3,18.21-31.47,36-31.47a35.71,35.71,0,0,1,6.52.68v9.44a35.12,35.12,0,0,0-5.21-.45c-17.55,0-28.6,14.84-33.51,31.48a80,80,0,0,0-3.41,23.61v48.55h-9.44Z"/><path class="cls-1" d="M1550.5,132.2h7.41v-3.83c0-25-12.82-33.49-30.79-33.49A52.74,52.74,0,0,0,1495,105.67L1489.58,98s13.48-12.37,38-12.37c25.87,0,39.81,14.4,39.81,42.51v72.59h-9.45V185.93a51.34,51.34,0,0,1,.9-10.12h-.44c.22,0-10.13,27.65-39.36,27.65-18.2,0-38.22-10.12-38.22-32.59,0-38.22,49.7-38.67,69.71-38.67m-31,62.5c24.51,0,38.44-25.41,38.44-47.66V141h-7.2c-19.1,0-60,0-60,29.2,0,11.92,9.67,24.51,28.78,24.51"/><polyline class="cls-1" points="1590.77 200.75 1590.77 42.86 1600.22 42.86 1600.22 200.75"/><path class="cls-1" d="M1667.91,85.66c28.32,0,38.88,25.4,38.88,25.4h.45a47.55,47.55,0,0,1-.9-9.22V41.16h9.39V200.71h-9.39V186.6a37.07,37.07,0,0,1,.9-8.53h-.45s-9.65,25.39-40.67,25.39c-30.12,0-48.55-24.05-48.55-58.89,0-35.76,20.85-58.91,50.38-58.91m-1.36,108.59c20.68,0,40-14.61,40-49.91,0-25-12.83-49.48-39.12-49.48-22,0-40,18.23-40,49.7,0,30.35,16.19,49.69,39.13,49.69"/><path class="cls-2" d="M997.61,248.52c-.68-2.83-.39-5,.9-6.59s3.33-2.36,6.12-2.37h10.43c4.9,0,7.83,2.41,8.85,7.2l11.74,58.47c.3,1.68.54,3.13.74,4.48s.35,2.48.44,3.46.15,2.09.15,3.13h.25a17.3,17.3,0,0,1,.31-3.13c.18-1,.36-2.08.51-3.46a26.25,26.25,0,0,1,1-4.48l14.4-58.61q1.75-7.05,9-7.06h6.32q7.18,0,8.81,7.06l14.1,58.61c.4,1.68.68,3.13.89,4.48s.38,2.48.58,3.46a17.28,17.28,0,0,1,.29,3.13h.29a21.81,21.81,0,0,1,.16-3.13c.15-1.13.22-2.09.37-3.46a40,40,0,0,1,.8-4.48l12.78-58.61q1.47-7.05,9-7.06h10q4.26,0,6.17,2.37c1.28,1.56,1.58,3.77.88,6.59l-22.62,89.18q-1.77,6.9-9,6.91h-14.25q-7.22,0-9-7.05l-11.47-46a30,30,0,0,1-1-4.76c-.2-1.53-.4-2.82-.59-3.89-.2-1.27-.34-2.51-.44-3.67h-.29c-.1,1.16-.25,2.4-.45,3.67-.29,2.15-.83,5-1.61,8.66l-11.47,46q-1.75,7.05-9,7.05H1028q-7.2,0-9-7.05Z"/><path class="cls-2" d="M1140.8,291.42a55.45,55.45,0,0,1,4-21.1,50.92,50.92,0,0,1,11.24-17,51.88,51.88,0,0,1,17.41-11.37,62.61,62.61,0,0,1,44.66,0,52.06,52.06,0,0,1,17.4,11.38,50.79,50.79,0,0,1,11.23,17,55.47,55.47,0,0,1,4,21.1,58,58,0,0,1-4,21.59,51.74,51.74,0,0,1-11.23,17.41,52.73,52.73,0,0,1-17.4,11.68,60.75,60.75,0,0,1-44.66,0A52.67,52.67,0,0,1,1156,330.43,51.92,51.92,0,0,1,1144.76,313,58,58,0,0,1,1140.8,291.42Zm26.59,0a35.59,35.59,0,0,0,2.08,12.52,30.76,30.76,0,0,0,5.88,9.89,27.44,27.44,0,0,0,9,6.61,28,28,0,0,0,22.77,0,27.5,27.5,0,0,0,9-6.61,30.81,30.81,0,0,0,5.89-9.92A35.77,35.77,0,0,0,1224,291.4a33,33,0,0,0-2.08-12,29.21,29.21,0,0,0-5.89-9.53,26.46,26.46,0,0,0-9-6.32,29.66,29.66,0,0,0-22.77,0,26.5,26.5,0,0,0-9,6.32,29.28,29.28,0,0,0-5.88,9.53A32.92,32.92,0,0,0,1167.39,291.42Z"/><path class="cls-2" d="M1265.5,247.65q0-8.07,8.09-8.09h28.53a104.49,104.49,0,0,1,12.51.6,33.88,33.88,0,0,1,7.87,1.91,28.69,28.69,0,0,1,14.16,11.23q5.23,7.86,5.22,19.32a38.14,38.14,0,0,1-1,8.45,34.08,34.08,0,0,1-2.94,8.07,30.83,30.83,0,0,1-4.92,7.06,23,23,0,0,1-6.9,5.06v.31c.29.39.63.88,1,1.47a13.53,13.53,0,0,1,1.24,2c.45.83,1,1.78,1.69,2.86l15,27c1.67,2.84,1.93,5.21.81,7s-3.26,2.72-6.39,2.72h-11.16a10.34,10.34,0,0,1-9.58-5.68l-15.55-29.73h-12v27.32q0,8.07-8.09,8.08h-9.53q-8.07,0-8.08-8.08Zm36.88,39.49q6.18,0,9.77-3.31t3.59-9.61a16.87,16.87,0,0,0-1.24-6.81,8.37,8.37,0,0,0-4.92-4.34q-3.4-1.47-9.69-1.47h-8.67v25.56Z"/><path class="cls-2" d="M1363.73,247.65q0-8.07,8.08-8.09h9.53q8.09,0,8.09,8.09v29.91h.38l27.57-32.26c2.8-3.44,5.33-5.74,9.53-5.74h10c3.22,0,5.38.91,6.46,2.73s1.36,4.17-.74,7l-33.1,38v.3l34.87,47.35q2.36,4.27.73,7c-1,1.82-3.23,2.73-6.47,2.73h-11.31a10.35,10.35,0,0,1-9.48-5.69l-28-39.41h-.38v37q0,8.07-8.09,8.08h-9.53q-8.07,0-8.08-8.08Z"/><path class="cls-2" d="M1459.75,335.93a11.21,11.21,0,0,1-2.09-2,6.32,6.32,0,0,1-1.24-2.5,5.91,5.91,0,0,1,0-3,10.38,10.38,0,0,1,1.83-3.67l4.56-6.62c1.47-2.15,3.08-3.34,4.85-3.59s3.86.32,6.25,1.69L1477,318a45.29,45.29,0,0,0,4.26,2.08,31.7,31.7,0,0,0,5.36,1.84,26,26,0,0,0,6.33.73q5.71,0,8.44-2.09a6.42,6.42,0,0,0,2.73-5.21,7.61,7.61,0,0,0-3.45-6.26,45.46,45.46,0,0,0-8.6-4.85q-5.14-2.25-11.17-4.85a54.54,54.54,0,0,1-11.15-6.38,33.82,33.82,0,0,1-8.62-9.38q-3.47-5.5-3.45-13.73a29.78,29.78,0,0,1,2.87-13.16,31.09,31.09,0,0,1,7.85-10.21,35,35,0,0,1,11.9-6.53,47,47,0,0,1,14.84-2.28,52.91,52.91,0,0,1,16.89,2.58,47.56,47.56,0,0,1,11.48,5.21q3.21,2.35,3.66,5.07a9.78,9.78,0,0,1-1.17,6l-3.52,6.91c-1.47,2.85-3.13,4.28-5.07,4.34a12,12,0,0,1-6-1.55q-3.68-1.77-7.57-3.3a24.33,24.33,0,0,0-9-1.54c-4.18,0-7.06.68-8.85,2.08a6.44,6.44,0,0,0-2.65,5.21,7.48,7.48,0,0,0,3.45,6.33,45,45,0,0,0,8.59,4.7q5.15,2.2,11.17,4.63a51.27,51.27,0,0,1,11.16,6.16,33.12,33.12,0,0,1,8.59,9.26q3.47,5.5,3.45,13.74a32.88,32.88,0,0,1-2.41,12.51,29.81,29.81,0,0,1-7.13,10.43,34.47,34.47,0,0,1-11.6,7.12,43.67,43.67,0,0,1-15.72,2.65,53.73,53.73,0,0,1-10.66-1,67.79,67.79,0,0,1-9.38-2.57,60.59,60.59,0,0,1-7.79-3.4A37.89,37.89,0,0,1,1459.75,335.93Z"/><path class="cls-3" d="M729.18,185.17a4.4,4.4,0,0,1-2.37.44V290.28h.05a6.88,6.88,0,0,0,3.13-.82l176.5-98.22a13,13,0,0,0,6.94-11.52V100.46a12.92,12.92,0,0,0-1.24-5.54h0a13.1,13.1,0,0,0-1.05-1.81l-147,74C748.85,175.09,734.35,182.5,729.18,185.17Z"/><path class="cls-4" d="M909.71,238.58a6.65,6.65,0,0,0-6.25.09l-174.53,97a4.55,4.55,0,0,1-2.09.57V440.07h0a13.33,13.33,0,0,0,6.12-1.55l173.55-96.67a13,13,0,0,0,6.94-11.53V245A7.05,7.05,0,0,0,909.71,238.58Z"/><path class="cls-5" d="M638.21,287.42c-.07-17.57-.07-117,0-134.6a4.5,4.5,0,0,1,.8-2.5l-98.15-49.43a13.08,13.08,0,0,0-.75,4.29V334.93a12,12,0,0,0,1.13,5.39l98.44-49.64A4.37,4.37,0,0,1,638.21,287.42Z"/><path class="cls-6" d="M724.68,335.79l-84.12-44.48a4.94,4.94,0,0,1-.84-.6L541.28,340.3a13,13,0,0,0,5.82,6.26l173.6,92a13.17,13.17,0,0,0,6.12,1.52V336.29A4.43,4.43,0,0,1,724.68,335.79Z"/><path class="cls-7" d="M640.59,148.93c12.7-6.7,73.07-38.29,84.76-44.4a4.34,4.34,0,0,1,1.46-.44V0a12,12,0,0,0-5.52,1.36L547.12,93.64a13.06,13.06,0,0,0-6.12,7.21l98.1,49.43A4.3,4.3,0,0,1,640.59,148.93Z"/><path class="cls-8" d="M729.31,104.45l74,35a4.44,4.44,0,0,1,.14,8L911.2,93.11a13.27,13.27,0,0,0-4.77-4.22L732.32,1.36A12,12,0,0,0,726.8,0h0V104.09A4.43,4.43,0,0,1,729.31,104.45Z"/><path class="cls-4" d="M725.16,185.17c-2.86-1.47-37.44-19.51-37.44-19.51a4.17,4.17,0,0,0-5.62,1.79,4.08,4.08,0,0,0-.47,1.9v93.86a6.75,6.75,0,0,0,3.6,6l38.43,20.37a6.65,6.65,0,0,0,3.12.78V185.62A4.61,4.61,0,0,1,725.16,185.17Z"/><path class="cls-9" d="M0,303.86v-119H84.21v22.29H25.33v25H83v22.3H25.33v49.41Z"/><path class="cls-9" d="M101.33,303.86V217.7H124v11.59c6.24-7.49,16.77-13.73,27.46-13.73v22.11a28.32,28.32,0,0,0-6.23-.54c-7.49,0-17.49,4.28-21.23,9.81v56.91Z"/><path class="cls-9" d="M160,260.69c0-24.44,17.13-45.13,45.5-45.13,28.54,0,45.67,20.69,45.67,45.18S234.07,306,205.53,306C177.16,306,160,285.14,160,260.69Zm67.62,0c0-13.38-7.85-25-22.11-25-14.1,0-21.95,11.59-21.95,25,0,13.56,7.85,25.15,21.95,25.15C219.8,285.81,227.65,274.27,227.65,260.69Z"/><path class="cls-9" d="M375,303.86V249.45c0-8-3.58-13.73-12.86-13.73-8,0-14.62,5.35-17.84,10v58.16H321.47V249.45c0-8-3.56-13.73-12.84-13.73-7.86,0-14.42,5.35-17.84,10v58.16H268.15V217.7h22.66v11.06c3.75-5,15-13.2,28.18-13.2,12.67,0,20.88,5.88,23.91,15.51,5-7.69,16.41-15.51,29.62-15.51,15.87,0,25.33,8.38,25.33,26v62.26Z"/></g></g></svg>