<svg xmlns="http://www.w3.org/2000/svg" viewBox="0 0 35 35"><defs><style>.cls-1{fill:#006dad;}.cls-2{fill:#fff;}</style></defs><title>linked-in</title><g id="Layer_2" data-name="Layer 2"><g id="Layer_1-2" data-name="Layer 1"><circle class="cls-1" cx="17.5" cy="17.5" r="17.5"/><path class="cls-2" d="M11.07,11.68A2.36,2.36,0,0,1,8.75,9.36,2.36,2.36,0,0,1,11.07,7a2.36,2.36,0,0,1,2.32,2.32,2.36,2.36,0,0,1-2.32,2.32Zm2,14.61h-4V13.44h4Zm15,0H24V20a7,7,0,0,0-.25-2.23,1.83,1.83,0,0,0-1.85-1.16,2,2,0,0,0-1.94,1,4.91,4.91,0,0,0-.43,2.28v6.36h-4V13.44h3.83V15.2h0a3.45,3.45,0,0,1,1.37-1.42,4.31,4.31,0,0,1,2.41-.68,4.26,4.26,0,0,1,3.91,1.76A8.69,8.69,0,0,1,28,19.24Z"/></g></g></svg>