<?xml version="1.0" encoding="utf-8"?>
<!-- Generator: Adobe Illustrator 25.2.0, SVG Export Plug-In . SVG Version: 6.00 Build 0)  -->
<svg version="1.1" id="Lager_1" xmlns="http://www.w3.org/2000/svg" xmlns:xlink="http://www.w3.org/1999/xlink" x="0px" y="0px"
	 viewBox="0 0 502.6 100.2" style="enable-background:new 0 0 502.6 100.2;" xml:space="preserve">
<style type="text/css">
	.st0{fill:#243746;}
	.st1{fill:#F66D1B;}
</style>
<g>
	<path class="st0" d="M167.3,36v8.7c1.5,0.3,2.9,0.5,4,0.6v38.2h12.2l0.1-47.7C180,35.7,170.7,35.8,167.3,36"/>
	<polygon class="st1" points="341.6,18.8 295.5,18.8 295.5,29.3 312.3,29.3 312.3,83.7 324.8,83.7 324.8,29.4 341.6,29.4 	"/>
	<path class="st1" d="M433,18.6v8.7c1.5,0.3,2.9,0.5,4,0.6v36.4l0,0v19.5h12.3V62.3l0.1-43.8C445.7,18.3,436.5,18.4,433,18.6"/>
	<path class="st0" d="M137.9,18.8l-11.1,33.5c-0.7,2.3-1.3,4.5-2,6.5c-0.5,2.2-1.1,4.4-1.6,6.8h-0.1c-0.5-2.6-1.3-5-1.8-7.3
		c-0.5-2.4-1.2-4.5-1.8-6.5l-11-33.1H93.9l-6.1,39.8l-3,19.7L84,83.6h12.5l3.7-29.9c0.4-2.8,0.7-5.6,1-8.3c0.4-2.7,0.6-5.5,0.7-8.4
		h0.3c0.5,2.6,1,5.4,1.7,8.1c0.7,2.6,1.5,5.4,2.4,8.2l10,30.3h12.4L139,51c0.8-2.5,1.5-5,2.2-7.3c0.5-2.3,1-4.5,1.5-6.5h0.3
		c0.3,2.3,0.5,4.7,0.8,7.3c0.3,2.6,0.6,5.4,1.2,8.3l4.6,31h13.2l-10.1-64.9L137.9,18.8L137.9,18.8z"/>
	<path class="st0" d="M231.5,37c-2-1.5-4.8-2.1-8.4-2.1c-3.8,0-7.2,0.9-9.9,2.7c-2.7,1.5-4.9,3.9-6.4,6.7h-0.1
		c0.3-1.5,0.5-2.8,0.5-4.3c0.1-1.5,0.2-2.8,0.2-4.2c-3.3-0.2-12-0.1-15.5,0.1v8.7c1.5,0.3,2.7,0.5,4,0.6v38.2h12.2v-23
		c0-2.7,0.5-5.4,1.5-7.8c0.9-2.2,2.2-4.1,4-5.6c1.5-1.4,3.6-2.1,5.6-2.1c2.2,0,3.8,0.6,4.6,2.1c0.9,1.5,1.3,3.3,1.3,5.8v30.7h12.2
		V50c0.1-2.6-0.4-5.2-1.3-7.6C235.1,40.1,233.6,38.2,231.5,37"/>
	<path class="st0" d="M275.9,58.8c0,2.6-0.4,5.3-1.3,7.7c-0.8,2.4-2,4.4-3.5,5.8c-1.5,1.5-3.5,2.3-5.5,2.3c-2.7,0-4.8-1.2-6.2-3.5
		c-1.3-2.3-2-5.7-2-10.2c0.1-5.9,1.2-10.1,3.4-12.6c2.2-2.5,5.3-3.7,8.8-3.6c1.1,0,2.2,0.1,3.2,0.2c1.1,0.2,2.2,0.4,3.2,0.5v13.4
		C276,58.8,275.9,58.8,275.9,58.8z M292.1,83.6v-8.9c-1.5-0.3-2.8-0.4-4-0.6l0,0l0.1-55.7c-3.6-0.2-12.8-0.1-16.3,0.1v8.7
		c1.5,0.3,2.9,0.5,4,0.6v7.4c-1.1-0.1-2.1-0.2-3.1-0.3c-1-0.1-2-0.1-3-0.1c-5.4,0-9.9,1.2-13.6,3.5c-3.8,2.2-6.7,5.5-8.6,9.6
		c-2.1,4-3.1,8.7-3.1,14.2c0,7,1.5,12.4,4.3,16.4c3,4,7.3,6,13.1,6.1c3.6-0.1,6.7-0.9,9.4-2.5c2.5-1.6,4.5-3.8,5.8-6.5h0.2
		c-0.2,1.2-0.3,2.5-0.4,3.9c-0.1,1.5-0.2,2.9-0.2,4.2L292.1,83.6L292.1,83.6z"/>
	<path class="st1" d="M345.4,60c0,9.1,4.5,15.9,11.7,15.9c6.8,0,11.6-6.6,11.6-16.1c0-7.4-3.3-15.9-11.5-15.9
		C348.9,44,345.4,52.1,345.4,60 M380.9,59.5c0,17.3-12.1,25.1-24.2,25.1c-13.3,0-23.6-9.2-23.6-24.3c0-15.4,10.2-25,24.4-25
		C371.6,35.3,380.9,45.2,380.9,59.5"/>
	<path class="st1" d="M395.8,60c0,9.1,4.5,15.9,11.7,15.9c6.8,0,11.6-6.6,11.6-16.1c0-7.4-3.3-15.9-11.5-15.9
		C399.2,44,395.8,52.1,395.8,60 M431.3,59.5c0,17.3-12.1,25.1-24.2,25.1c-13.3,0-23.6-9.2-23.6-24.3c0-15.4,10.2-25,24.4-25
		C421.9,35.3,431.3,45.2,431.3,59.5"/>
	<path class="st1" d="M9.1,72c-0.6-0.4-0.8-1.2-0.3-1.8l0,0c0.3-0.5,1.1-1.9,1.8-3c0.6-0.9,0.8-2,0.6-3l0,0
		c-0.1-0.9-0.5-1.7-1.2-2.4c-5.9-6.3-9.1-15-9.1-24.4c0-18,12.5-29.2,30.5-29.2c20.5,0.4,31.5,10.6,31.1,26
		c-0.1,4.5-2.3,5.1,2.8,9.4c1.3,1.1,2.9,2.2,3.2,3.8c0.4,2.3-0.8,3.3-2.1,3.9c-2,1-2.3,1.5-2.5,2.3c-0.5,2,1.9,2.4,1.9,4.2
		c0,1.3-1.5,2-2.2,2.8c-0.6,0.8,1.2,0.7,0.5,2.4c-0.5,1.1-1.5,2.1-2.3,2.7c-2.2,1.6,0.2,4.3-1.9,6.9c-3.4,4.2-11.5,1.9-14.8,1.4
		c-4.4-0.7-6.9,1-6.1,7.7l1,9.1c0.1,1.1-1.1,1.8-2,1.2L9.1,72z"/>
	<path class="st1" d="M483.8,35.7c-1.4-0.4-2.8-0.6-4.3-0.8c-1.6-0.2-3-0.2-4.5-0.2c-4.6,0.1-8.3,0.8-11.4,2.2
		c-3,1.3-5.2,3.1-6.7,5.4c-1.4,2.3-2.1,5-2.1,7.8c0,3.1,0.7,5.6,2,7.4s3,3.1,4.9,4c2,0.9,3.8,1.7,5.8,2.4c1.9,0.6,3.6,1.3,4.9,2.1
		c1.2,0.9,1.9,2.1,2,3.8c-0.1,1.6-0.7,2.8-2.1,3.7c-1.3,0.9-3.3,1.4-5.6,1.4c-1.8,0-3.6-0.2-5.3-0.4c-1.8-0.4-3.5-0.8-4.9-1.5
		l-0.9,10.2c1.6,0.5,3.3,0.8,5,1c1.9,0.3,3.7,0.3,5.6,0.3c4.3,0,8-0.7,11.2-2.1c3.1-1.3,5.5-3.1,7.3-5.4c1.7-2.4,2.6-5.2,2.6-8.3
		c0-3.1-0.7-5.6-2.1-7.3c-1.3-1.8-2.9-3.2-4.9-4.1c-2-1-3.9-1.8-5.9-2.5c-2-0.6-3.5-1.4-4.9-2.2c-1.3-0.9-2.1-2.1-2.1-3.7
		c0-1.5,0.6-2.7,1.7-3.5c1.2-0.8,3-1.3,5.4-1.3c1.6,0,3,0.1,4.5,0.3c1.4,0.2,2.8,0.6,4.1,0.9L483.8,35.7z"/>
	<g>
		<path class="st1" d="M495.5,22.1c1,0,1.9,0.2,2.8,0.7c0.9,0.5,1.6,1.2,2.1,2.1s0.8,1.9,0.8,2.9s-0.3,2-0.8,2.9s-1.2,1.6-2.1,2.1
			c-0.9,0.5-1.8,0.8-2.9,0.8c-1,0-2-0.3-2.9-0.8s-1.6-1.2-2.1-2.1s-0.8-1.9-0.8-2.9s0.3-2,0.8-2.9s1.2-1.6,2.1-2.1
			C493.6,22.3,494.5,22.1,495.5,22.1 M495.5,23.2c-0.8,0-1.5,0.2-2.3,0.6c-0.7,0.4-1.3,1-1.7,1.7s-0.6,1.5-0.6,2.3s0.2,1.6,0.6,2.3
			c0.4,0.7,1,1.3,1.7,1.7c0.7,0.4,1.5,0.6,2.3,0.6s1.6-0.2,2.3-0.6c0.7-0.4,1.3-1,1.7-1.7s0.6-1.5,0.6-2.3s-0.2-1.6-0.6-2.3
			c-0.4-0.8-1-1.3-1.7-1.7C497.1,23.4,496.3,23.2,495.5,23.2"/>
		<g>
			<path class="st1" d="M496.8,30.9l-1.5-2.5h-1v2.5h-1.2v-6.1h2.3c1.2,0,2,0.7,2,1.8c0,0.7-0.4,1.3-1,1.6l1.6,2.7H496.8z
				 M494.4,27.4h1c0.6,0,1-0.3,1-0.8s-0.3-0.8-1-0.8h-1V27.4z"/>
		</g>
	</g>
	<circle class="st0" cx="177.3" cy="21.2" r="7.4"/>
</g>
</svg>
