<svg xmlns="http://www.w3.org/2000/svg" viewBox="0 0 35 35"><defs><style>.cls-1{fill:#56a1d8;}.cls-2{fill:#fff;}</style></defs><title>twitter</title><g id="Layer_2" data-name="Layer 2"><g id="Layer_1-2" data-name="Layer 1"><circle class="cls-1" cx="17.5" cy="17.5" r="17.5"/><path class="cls-2" d="M25.43,13.35a2.11,2.11,0,0,1,0,.51,11.64,11.64,0,0,1-1.37,5.43,11.14,11.14,0,0,1-3.94,4.41,11.25,11.25,0,0,1-6.37,1.84A11.34,11.34,0,0,1,7.5,23.7a9.62,9.62,0,0,0,1,0A8.07,8.07,0,0,0,13.59,22a3.78,3.78,0,0,1-2.4-.8,4,4,0,0,1-1.42-2,6.34,6.34,0,0,0,.74,0,5.06,5.06,0,0,0,1.09-.12,4.13,4.13,0,0,1-2.34-1.44,3.93,3.93,0,0,1-.94-2.58V15a3.9,3.9,0,0,0,1.84.55,4.54,4.54,0,0,1-1.33-1.49,3.88,3.88,0,0,1-.51-2A4,4,0,0,1,8.91,10a11.28,11.28,0,0,0,3.73,3.05,11.45,11.45,0,0,0,4.7,1.25,6,6,0,0,1-.07-.94,4.11,4.11,0,0,1,.54-2.05,4,4,0,0,1,1.49-1.5,3.89,3.89,0,0,1,2-.55A4,4,0,0,1,23,9.64a4.55,4.55,0,0,1,1.35.94A8.23,8.23,0,0,0,27,9.6a4.1,4.1,0,0,1-1.79,2.27,9,9,0,0,0,2.34-.67A8.81,8.81,0,0,1,25.43,13.35Z"/></g></g></svg>