<svg xmlns="http://www.w3.org/2000/svg" viewBox="0 0 35 35"><defs><style>.cls-1{fill:#e52421;}.cls-2{fill:#fff;}</style></defs><title>you-tube</title><g id="Layer_2" data-name="Layer 2"><g id="Layer_1-2" data-name="Layer 1"><circle class="cls-1" cx="17.5" cy="17.5" r="17.5"/><path class="cls-2" d="M28.13,15.46l0,1.95,0,2a17.09,17.09,0,0,1-.4,3.24,2.72,2.72,0,0,1-.7,1.17,2.68,2.68,0,0,1-1.21.7,26.28,26.28,0,0,1-4.77.39l-3.55,0-3.55,0a26.28,26.28,0,0,1-4.77-.39A2.68,2.68,0,0,1,8,23.78a2.72,2.72,0,0,1-.7-1.17,16.46,16.46,0,0,1-.39-3.24l0-2c0-.57,0-1.22,0-1.95a16.28,16.28,0,0,1,.39-3.2,2.75,2.75,0,0,1,1.91-1.92A28.38,28.38,0,0,1,14,10l3.55,0,3.55,0a28.38,28.38,0,0,1,4.77.39,2.75,2.75,0,0,1,1.91,1.92A16.92,16.92,0,0,1,28.13,15.46ZM20.9,17.41l-5.59-3.16v6.37Z"/></g></g></svg>