<?xml version="1.0" encoding="utf-8"?>
<!-- Generator: Adobe Illustrator 21.0.0, SVG Export Plug-In . SVG Version: 6.00 Build 0)  -->
<svg version="1.1" id="Layer_1" xmlns="http://www.w3.org/2000/svg" xmlns:xlink="http://www.w3.org/1999/xlink" x="0px" y="0px"
	 viewBox="0 0 197.2 44.8" style="enable-background:new 0 0 197.2 44.8;" xml:space="preserve">
<style type="text/css">
	.st0{fill:#FFFFFF;}
	.st1{fill:#F7A800;}
	.st2{fill:#225A40;}
</style>
<g>
	<g>
		<path class="st0" d="M35,39.1c1.9,0,4.6-2.7,5.3-3.5c-0.3-0.1-0.7-0.2-1.1-0.4c3.2-1.7,4.4-4.6,4.4-4.6s-0.5,0.1-1.2,0.3
			c2.4-1.7,3.8-4.3,3.8-4.3s-0.7,0.2-1.6,0.4c2-1.1,3.3-2.8,4-3.8c4-1.1,5.6-3.5,5.6-3.5c-11.4,1.7-9.4-4.4-17.1-7.3
			c-2.6-1-5.9-2.5-7.8-7.3c-4.9-1.4-7.5,1.5-8.7,5.7c-0.8-0.9-2.2-1.2-2.4-3.2c-1.9,2.3-2.6,5.1-2.8,6.2c-2.8,1.1-3.8,2.3-4.2,3.1
			c-4,2.3-8.6,2.7-8.6,6c0,1.4,1,2.9,1.6,3.6c0,3.2,2.1,4.5,2.1,4.5c-0.3,0.6-0.1,1.2-0.1,1.2c-0.1,0.3-0.2,0.6-0.2,1
			c0,0.8,0.5,3,1.9,3s2.4-1.6,4.5-1.6h2.2c-2.6,5-4.6,9.6-4.6,9.6s5.1-2.3,8.4-2.3c4.7,0,6.7,2.1,9.8,2.1
			C32.5,43.9,34.2,39.1,35,39.1z M28.5,6.1c1.5,3.9,4.6,6,8.2,7.4c6.3,2.3,5.8,7.8,14.5,7.6c0,0-3.1,1.6-6.8,1.6
			c-4.7,0-3.4-3.5-11.1-3.5c-6.7,0-5.4-4.7-9.1-4.7c-1.5,0-2.7,0.7-3.3,1C21.3,10.4,22.9,4.9,28.5,6.1z M20.9,16.8
			c0.7-0.5,2-1.2,3.3-1.2c2.8,0,2.1,4.7,9.1,4.7c7.2,0,5.9,3.5,11.1,3.5c0.9,0,1.7-0.1,2.5-0.2c-0.8,1-3.2,3.4-6.4,3.4
			c-1.9,0-2.6-2.2-6.3-2.2c-1.6,0-2.8,0.3-4.2,0.3c-3.5,0-4.4-2.8-6-2.8c-0.8,0-1.8,0.6-2.8,1.7c-0.1-1-0.4-3.6-0.4-5.9
			C20.9,17.7,20.9,17.3,20.9,16.8z M24.1,23.4c0.7,0,2.4,2.8,6,2.8c1.3,0,2.8-0.3,4.2-0.3c4.2,0,3.8,3.6,9.2,2.4
			c0,0-2.2,2.9-5.1,2.9c-2.2,0-2.7-1.2-3.7-1.2c-1.5,0-3.2,1.5-6,1.5c-2.7,0-3.5-2.3-5.9-2.3c-1.8,0-3.7,0.7-4.7,1.1
			C20.6,26.2,22.8,23.4,24.1,23.4z M18,9.9c0.4,0.9,1.2,1.1,1.8,1.8c-1.4,0.1-2.5,1-3.1,1.5C16.8,12.6,17.2,11.3,18,9.9z M12.3,33.4
			c-2.4,0-3.6,1.6-4.5,1.6C7.4,35,7,33.8,7,33.1c0-0.6,0.3-0.9,0.3-0.9S6.8,30.9,8,30.9c1.9,0,3.2,0.7,3.9,0.7
			c0.9,0,1.4-0.8,1.4-0.8S11.5,31,10.4,31c-5.8,0-5.2-4.9-5.2-4.9s-1.6-1.8-1.6-3.2c0-2.2,3.8-2.6,8.4-5.2c0,0,0.1-1.5,4.6-3.2
			c0.6-0.2,1.7-1.7,3.5-1.8c-0.3,1.7-0.4,3.5-0.4,5.3c0,2.7,0.3,5.3,0.6,7c-1.7,2.1-3.6,5.2-5.2,8.2h-2.8V33.4z M17.2,31.9
			c1.2-0.5,3.7-1.5,5.6-1.5c1.8,0,2.8,2.3,5.9,2.3c3,0,4.7-1.5,6-1.5c0.4,0,1.4,1.4,3.7,1.4c1.3,0,2.7-0.3,2.7-0.3s-2,2.9-6.7,2.9
			c-1.9,0-3.3,3-6.6,3c-3,0-4.2-2.6-7-2.6c-3.3,0-5.6,1.3-6.6,2C15.2,35.6,16.2,33.6,17.2,31.9z M12,42c0,0,1.9-5.3,8.7-5.3
			c2.3,0,3.6,2.6,7,2.6c4.9,0,4.6-4.2,10.4-3.2c0,0-2.2,1.9-3.2,1.9c-1.7,0-2.7,4.8-6.9,4.8c-2.8,0-5.1-2.1-9.8-2.1
			C15.6,40.7,12,42,12,42z"/>
		<path class="st0" d="M14.4,17.7c-2.1,0-2.2,2.1-2.2,2.1s1.2-1,2.5-1C16.1,18.8,15.3,17.7,14.4,17.7z"/>
	</g>
	<g>
		<path class="st1" d="M15.1,13.6c0,0,0.5-3.6,3.4-6.8c0.1,2.4,1.3,2.7,1.9,3.4c0.9-2.9,3.2-7.1,9.1-5.4c1,2.6,2.4,5.3,7.6,7.2
			c7.2,2.7,6.1,8.1,14.9,7.5C48.4,10.3,39.3,3.7,28.7,3.7C18.4,3.7,9.5,10,5.7,19c1.5-0.7,3.3-1.3,5.2-2.4
			C11.3,15.9,12.4,14.7,15.1,13.6z"/>
		<path class="st1" d="M46.4,26.2c0.2-0.1,0.6-0.1,0.6-0.1s-1,2.2-3.1,4.2c0.2,0,0.4-0.1,0.4-0.1s-0.2,0.5-0.6,1.2l7.1,9.4
			c2-3.6,3.1-7.7,3.1-12.1c0-2.5-0.4-4.9-1-7.1C52,22.3,50.7,23,49,23.5C48.4,24.2,47.5,25.2,46.4,26.2z"/>
		<path class="st1" d="M12.3,34.9c-1.9,0-3,1.6-4.5,1.6c-1.7,0-2.3-2.3-2.3-3.3c0-0.4,0.1-0.7,0.2-1.1c0,0-0.1-0.5,0.1-1.1
			c-0.5-0.4-1.9-1.7-2-4.1c0,0.6-0.1,1.2-0.1,1.8c0,4.4,1.1,8.5,3.1,12.1h4.1c0.8-1.7,1.8-3.8,2.9-5.9
			C13.3,34.9,12.3,34.9,12.3,34.9z"/>
		<path class="st1" d="M34.9,38c1,0,3.2-1.9,3.2-1.9c-5.9-1-5.6,3.2-10.4,3.2c-3.3,0-4.7-2.6-7-2.6C13.9,36.7,12,42,12,42
			s3.6-1.4,6.2-1.4c4.8,0,7.1,2.1,9.8,2.1C32.2,42.8,33.2,38,34.9,38z M28.1,42.4c-2.7,0-5-2.1-9.8-2.1c-1.9,0-4.3,0.7-5.5,1.1
			c0.8-1.4,3-4.3,8-4.3c2.1,0,3.5,2.6,7,2.6c4.8,0,4.7-3.7,9.6-3.3c-0.8,0.6-1.8,1.3-2.3,1.3C32.9,37.6,32,42.4,28.1,42.4z"/>
		<path class="st1" d="M14.1,37.6c1-0.7,3.2-2,6.6-2c2.8,0,4,2.6,7,2.6c3.3,0,4.8-3,6.6-3c4.7,0,6.7-2.9,6.7-2.9s-1.4,0.3-2.7,0.3
			c-2.3,0-3.3-1.4-3.7-1.4c-1.2,0-3,1.5-6,1.5c-3.1,0-4.1-2.3-5.9-2.3c-1.9,0-4.4,1-5.6,1.5C16.2,33.6,15.2,35.6,14.1,37.6z
			 M22.8,30.7c1.6,0,2.7,2.3,5.9,2.3c3,0,4.9-1.5,5.9-1.5c0.2,0,1.3,1.4,3.7,1.4c0.6,0,1.2-0.1,1.7-0.1c-0.9,0.8-2.8,2.1-5.8,2.1
			c-2,0-3.5,3-6.6,3c-2.9,0-4.1-2.6-7-2.6c-2.5,0-4.4,0.7-5.7,1.4c0.8-1.6,1.6-3.1,2.4-4.5C18.5,31.7,21,30.7,22.8,30.7z"/>
		<path class="st1" d="M33.3,19.1c7.6,0,6.4,3.5,11.1,3.5c3.7,0,6.8-1.6,6.8-1.6c-8.7,0.2-8.1-5.3-14.5-7.6C33,12,30,9.9,28.5,6
			c-5.5-1.2-7.2,4.3-7.5,9.4c0.5-0.3,1.8-1,3.3-1C28,14.5,26.7,19.1,33.3,19.1z M28.2,6.4c1.4,3.5,4.1,5.8,8.3,7.4
			c5.8,2.1,5.6,7,13,7.6c-1.2,0.4-3.1,1-5.2,1c-4.5,0-3.3-3.5-11.1-3.5c-6.5,0-5.1-4.7-9.1-4.7c-1.2,0-2.2,0.4-2.8,0.7
			C21.8,10.1,23.3,5.4,28.2,6.4z"/>
		<path class="st1" d="M20.9,18.1c0,2.4,0.3,4.9,0.4,5.9c1-1.1,2-1.7,2.8-1.7c1.6,0,2.6,2.8,6,2.8c1.4,0,2.6-0.3,4.2-0.3
			c3.7,0,4.4,2.2,6.3,2.2c3.1,0,5.5-2.4,6.4-3.4c-0.8,0.1-1.6,0.2-2.5,0.2c-5.2,0-3.9-3.5-11.1-3.5c-7,0-6.4-4.7-9.1-4.7
			c-1.3,0-2.6,0.8-3.3,1.2C20.9,17.3,20.9,17.7,20.9,18.1z M21.2,17c0.7-0.4,1.8-1.1,3-1.1c2.5,0,2.1,4.7,9.1,4.7s5.7,3.5,11.1,3.5
			c0.5,0,1.1,0,1.6-0.1c-1.1,1.1-3.1,2.6-5.4,2.6c-1.7,0-2.5-2.2-6.3-2.2c-1.7,0-2.6,0.3-4.2,0.3c-3.3,0-4.3-2.8-6-2.8
			c-0.7,0-1.6,0.5-2.5,1.3c-0.2-1.1-0.4-3.2-0.4-5.1C21.2,18.1,21.2,17.3,21.2,17z"/>
		<path class="st1" d="M22.8,29.2c2.4,0,3.2,2.3,5.9,2.3s4.5-1.5,6-1.5c0.9,0,1.5,1.2,3.7,1.2c2.9,0,5.1-2.9,5.1-2.9
			c-5.4,1.2-5-2.4-9.2-2.4c-1.4,0-2.9,0.3-4.2,0.3c-3.7,0-5.3-2.8-6-2.8c-1.2,0-3.5,2.8-5.9,6.8C19.1,29.9,21,29.2,22.8,29.2z
			 M24.1,23.8c0.4,0,2.4,2.8,6,2.8c1.6,0,2.5-0.3,4.2-0.3c3.8,0,3.7,3.1,8.3,2.5c-0.8,0.8-2.4,2-4.2,2c-2.1,0-2.6-1.2-3.7-1.2
			c-1.6,0-3.3,1.5-6,1.5c-2.6,0-3.3-2.3-5.9-2.3c-1.3,0-2.8,0.4-3.8,0.7C22.4,24.2,23.7,23.8,24.1,23.8z"/>
	</g>
	<g>
		<path class="st2" d="M63.1,31h0.6v-0.4h-3.5V31h1c0.4,0,0.5,0.3,0.5,2.2v4.4c0,2.9,2.3,3.5,3.8,3.5c2,0,4.2-1,4.2-4.1v-5.9
			c0-0.1,0.1-0.2,0.3-0.2h0.7v-0.4h-3V31h0.9c0.4,0,0.5,0,0.5,2.4V37c0,3.3-2.3,3.6-3.4,3.6c-1,0-3-0.4-3-3.2v-6.2
			C62.8,31,62.9,31,63.1,31z"/>
		<path class="st2" d="M78.9,31.9l7.2,8.9l0.1,0.1c0.1,0,0.1-0.1,0.1-0.2v-9.6c0-0.1,0.1-0.2,0.3-0.2h0.7v-0.4h-3V31h0.9
			c0.4,0,0.5,0,0.5,2.4V39l0,0l-6.8-8.5h-2.1V31h0.7c0.6,0,0.7,0.6,0.7,1.2v8c0,0.1-0.1,0.2-0.3,0.2h-0.7v0.4h3v-0.4h-0.9
			c-0.4,0-0.5,0-0.5-2.4L78.9,31.9L78.9,31.9z"/>
		<path class="st2" d="M95,40.4h-0.7v0.4h3.5v-0.4h-0.9c-0.4,0-0.5,0-0.5-2.4v-6.9c0-0.2,0.2-0.2,0.4-0.2h0.6v-0.4h-3.5V31h1
			c0.4,0,0.5,0.3,0.5,2.2v7.1C95.3,40.3,95.2,40.4,95,40.4z"/>
		<path class="st2" d="M105.8,31h0.8v-0.4h-3.2V31h0.3c0.5,0,0.6,0,0.8,0.5c1.3,3.1,3.5,8.3,3.8,9.4c0,0.2,0.1,0.2,0.2,0.2
			s0.2-0.2,0.4-0.6c1.8-4.5,3.5-8.8,3.6-9.3c0.1-0.2,0.1-0.2,0.2-0.2h0.7v-0.4h-3.1V31h0.9c0.3,0,0.5,0,0.5,0.3
			c0,0.5-0.7,2.7-2.9,7.9c-1.5-3.6-3.3-8-3.3-8.1C105.5,31,105.7,31,105.8,31z"/>
		<path class="st2" d="M120.2,40.4h-0.7v0.4h7.2c0.2-0.7,0.4-1.3,0.4-1.4c0-0.1,0-0.1-0.1-0.1s-0.1,0.1-0.2,0.2
			c-0.3,0.8-2.7,0.8-3.5,0.8h-1c-0.6,0-0.7,0-0.7-2.3v-2.6h2.1c1.9,0,1.9,0,1.9,0.4v0.6h0.4v-2.7h-0.4v0.6c0,0.4-0.1,0.5-2.4,0.5
			h-1.5v-3.7c0-0.2,0.3-0.2,0.6-0.2h1.2c0.7,0,1.7,0,2.4,0.2c0.3,0.1,0.5,0.2,0.5,0.4c0,0.1,0,0.2,0.2,0.2c0.1,0,0.1-0.1,0.1-0.3
			l0.2-1.1h-7.6V31h1c0.4,0,0.5,0.3,0.5,2.2v7.1C120.5,40.3,120.3,40.4,120.2,40.4z"/>
		<path class="st2" d="M137,36.2c3.2,4.5,3.3,4.7,3.6,4.7h1.7v-0.4c-0.5,0-0.7,0-0.9-0.2c-0.5-0.4-1.7-1.9-3.3-4.2
			c1.5-0.3,2.6-1.2,2.6-2.8c0-1.4-1.1-2.7-3.2-2.7h-4.3V31h1c0.4,0,0.5,0.3,0.5,2.2v7.1c0,0.1-0.1,0.2-0.3,0.2h-0.7v0.4h3.5v-0.4h-1
			c-0.4,0-0.5,0-0.5-2.4v-1.8L137,36.2L137,36.2z M135.7,31.2c0-0.2,0.3-0.2,0.6-0.2h0.7c2.3,0,2.7,1.8,2.7,2.4c0,1.8-1.6,2.3-3,2.3
			h-0.9v-4.5H135.7z"/>
		<path class="st2" d="M150.5,40.6c-0.7,0-2.3-0.3-2.5-1.2c0-0.1,0-0.3-0.2-0.3c-0.1,0-0.2,0.1-0.2,0.2c0,0.1,0.1,0.6,0.2,1.4
			c0.7,0.3,1.7,0.4,2.4,0.4c1.9,0,3.8-1.1,3.8-3.1c0-3.6-5.3-2.4-5.3-5.3c0-0.8,0.7-2,2.3-2c0.5,0,1.8,0.2,1.9,0.8
			c0,0.1,0,0.2,0.2,0.2c0.1,0,0.1-0.1,0.1-0.2v-1.1c-0.5-0.2-1.2-0.3-1.8-0.3c-1.8,0-3.6,1.2-3.6,2.8c0,3.6,5.3,2.3,5.3,5.4
			C153.2,39.9,151.9,40.6,150.5,40.6z"/>
		<path class="st2" d="M161.3,40.4h-0.7v0.4h3.5v-0.4h-0.9c-0.4,0-0.5,0-0.5-2.4v-6.9c0-0.2,0.2-0.2,0.4-0.2h0.6v-0.4h-3.5V31h1
			c0.4,0,0.5,0.3,0.5,2.2v7.1C161.6,40.3,161.4,40.4,161.3,40.4z"/>
		<path class="st2" d="M178.5,31.8c0,0.1,0.1,0.2,0.2,0.2c0.1,0,0.2,0,0.2-0.1s0-0.2-0.4-1.4h-7.8c-0.4,1.1-0.4,1.3-0.4,1.4
			c0,0.1,0.1,0.1,0.2,0.1c0.1,0,0.2-0.1,0.2-0.2c0.4-0.8,2.5-0.8,3.5-0.8v9.2c0,0.1-0.1,0.2-0.3,0.2h-1.2v0.4h4.2v-0.4h-1.2
			c-0.4,0-0.5,0-0.5-2.4v-7C176,31,178.1,31,178.5,31.8z"/>
		<path class="st2" d="M189,38v-1.7l2.6-4.9c0.2-0.3,0.2-0.5,0.5-0.5h0.6v-0.4h-2.9V31h1c0.1,0,0.2,0,0.2,0.2c0,0.3-1.1,2.3-2.3,4.6
			c-1-1.7-2.7-4.6-2.7-4.8c0-0.1,0-0.1,0.3-0.1h0.7v-0.4h-3.3V31h0.6c0.4,0,0.4,0,0.8,0.6c0.7,1,1.6,2.7,2.9,4.8v1.1v2.8
			c0,0.1-0.1,0.2-0.3,0.2H187v0.4h3.5v-0.4h-0.9C189.2,40.4,189,40.3,189,38z"/>
		<path class="st2" d="M65.3,25.8c-1.3,0-4.2-0.6-4.6-2.2c0-0.2-0.1-0.5-0.4-0.5c-0.2,0-0.3,0.1-0.3,0.3c0,0.2,0.2,1.2,0.4,2.6
			c1.3,0.5,3,0.8,4.4,0.8c3.5,0,6.9-2,6.9-5.7c0-6.4-9.6-4.4-9.6-9.5c0-1.5,1.2-3.5,4.2-3.5c0.9,0,3.3,0.3,3.5,1.5
			c0,0.2,0.1,0.4,0.3,0.4c0.2,0,0.3-0.2,0.3-0.4v-2c-1-0.4-2.3-0.6-3.2-0.6c-3.3,0-6.5,2.1-6.5,5.1c0,6.6,9.5,4.1,9.5,9.8
			C70.2,24.5,67.8,25.8,65.3,25.8z"/>
		<path class="st2" d="M83.5,7.1c0-0.1-0.1-0.2-0.2-0.2c-0.2,0-0.9,0.1-1.5,0.3l-7.4,17.6c-0.2,0.6-0.3,0.6-1.7,0.6v0.8h5.9v-0.8
			h-0.7h-1.2c-0.7,0-0.7-0.5-0.7-0.7c0-0.8,0.7-3,1.8-5.6h6.9c0.9,2.5,2.1,5.8,2.1,6c0,0.2-0.1,0.3-0.6,0.3h-1.5v0.8h6v-0.8h-1.1
			c-0.6,0-1-0.9-1.4-1.8C87.1,21,83,9.2,83,8C83,7.4,83.5,7.5,83.5,7.1z M84.2,18.1h-6.1c1-2.6,1.9-4.7,3.4-8.3L84.2,18.1z"/>
		<path class="st2" d="M91.9,8.4h1.7c0.7,0,0.8,0.6,0.8,3.9v12.8c0,0.2-0.3,0.3-0.6,0.3h-1.2v0.8h6.3v-0.8h-1.6c-0.6,0-1-0.1-1-4.3
			V8.7c0-0.3,0.3-0.3,0.7-0.3h1.2V7.6h-6.3V8.4z"/>
		<path class="st2" d="M114.3,8.4h1.6c0.6,0,1,0.1,1,4.3v10.2h-0.1L104.5,7.6h-3.7v0.8h1.3c1,0,1.3,1.1,1.3,2.2v14.6
			c0,0.2-0.3,0.3-0.6,0.3h-1.2v0.8h5.4v-0.8h-1.6c-0.6,0-1-0.1-1-4.3v-11h0.1l13,16.2c0.1,0.1,0.1,0.1,0.2,0.1
			c0.2,0,0.2-0.2,0.2-0.4V8.7c0-0.2,0.3-0.3,0.6-0.3h1.2V7.6h-5.4V8.4z"/>
		<path class="st2" d="M133.6,25.4h-2.1c-0.6,0-1-0.1-1-4.3V8.5c1.8,0,5.6,0,6.2,1.4c0.1,0.2,0.2,0.4,0.4,0.4c0.1,0,0.3-0.1,0.3-0.2
			c0-0.1-0.1-0.4-0.8-2.5h-14.1c-0.7,2-0.8,2.3-0.8,2.5s0.1,0.2,0.3,0.2s0.3-0.2,0.4-0.4c0.6-1.5,4.5-1.4,6.2-1.4v16.6
			c0,0.2-0.3,0.3-0.6,0.3h-2.1v0.8h7.7L133.6,25.4L133.6,25.4z"/>
		<path class="st2" d="M146.4,8.4h1.7c0.7,0,0.8,0.6,0.8,3.9v12.8c0,0.2-0.3,0.3-0.6,0.3h-1.2v0.8H160c0.4-1.2,0.7-2.3,0.7-2.5
			c0-0.1-0.1-0.2-0.2-0.2c-0.2,0-0.3,0.1-0.3,0.3c-0.6,1.4-4.9,1.4-6.4,1.4h-1.9c-1,0-1.2,0-1.2-4.1V8.7c0-0.3,0.3-0.3,0.7-0.3h1.2
			V7.6h-6.3v0.8H146.4z"/>
		<path class="st2" d="M167.1,8.6h2.2c1.3,0,3.1,0,4.3,0.4c0.5,0.1,0.8,0.3,0.9,0.8c0,0.2,0.1,0.4,0.3,0.4s0.2-0.1,0.3-0.5l0.3-2
			h-13.8v0.8h1.7c0.7,0,0.8,0.6,0.8,3.9v12.8c0,0.2-0.3,0.3-0.6,0.3h-1.2v0.8h12.9c0.4-1.2,0.7-2.3,0.7-2.5c0-0.1-0.1-0.2-0.2-0.2
			c-0.2,0-0.3,0.1-0.3,0.3c-0.6,1.4-4.9,1.4-6.4,1.4h-1.8c-1,0-1.2,0-1.2-4.1v-4.7h3.7c3.4,0,3.4,0.1,3.4,0.8v1.1h0.7v-4.9h-0.6v1.2
			c0,0.6-0.2,1-4.4,1H166V9C166,8.6,166.6,8.6,167.1,8.6z"/>
		<path class="st2" d="M188.1,7c-5.8,0-9.6,4.7-9.6,10.1c0,5.6,3.1,9.6,9.1,9.6c5.8,0,9.6-4.7,9.6-10.1C197.2,11.1,194.1,7,188.1,7z
			 M188.2,25.9c-3.8,0-7.7-2.7-7.7-9.3c0-6.8,4.2-8.7,7.1-8.7c3.8,0,7.7,2.7,7.7,9.3C195.3,24,191.1,25.9,188.2,25.9z"/>
		<path class="st2" d="M193.4,39.2c0-0.2-0.2-0.4-0.4-0.4h-0.6v1.5h0.3v-0.6h0.2l0.3,0.6h0.3l-0.3-0.6
			C193.3,39.6,193.4,39.4,193.4,39.2z M193,39.4h-0.3v-0.3h0.3c0.1,0,0.2,0.1,0.2,0.2C193.1,39.3,193.1,39.4,193,39.4z"/>
		<path class="st2" d="M192.9,38.2c-0.7,0-1.3,0.6-1.3,1.3s0.6,1.3,1.3,1.3s1.3-0.6,1.3-1.3S193.6,38.2,192.9,38.2z M192.9,40.5
			c-0.6,0-1-0.5-1-1c0-0.6,0.5-1,1-1c0.6,0,1,0.5,1,1C193.9,40.1,193.4,40.5,192.9,40.5z"/>
		<path class="st2" d="M9.1,44.8c0,0,5.7-2.7,9.1-2.7c4.6,0,6.6,2.1,9.8,2.1c2.9,0,4.8-2,5.9-3.5h16.7l-7.1-9.4
			c0.4-0.7,0.6-1.2,0.6-1.2s-0.2,0-0.4,0.1c2.1-2,3.1-4.2,3.1-4.2s-0.3,0.1-0.6,0.1c1.1-0.9,2-2,2.5-2.6c1.7-0.5,3-1.2,3.9-1.9
			c0.7,2.3,1,4.6,1,7.1c0,4.4-1.1,8.5-3.1,12.1h0.4c1.9-3.6,3-7.7,3-12.1c0-2.6-0.4-5-1.1-7.4c0.5-0.4,0.9-0.8,1.2-1.2
			c0.9,2.7,1.4,5.5,1.4,8.5c0,4.3-1,8.4-2.8,12.1h2.1c1.7-3.7,2.6-7.8,2.6-12.1C57.5,12.9,44.6,0,28.7,0S0,12.9,0,28.7
			c0,4.3,0.9,8.4,2.6,12.1h2.1c-1.8-3.6-2.8-7.7-2.8-12.1c0-1.7,0.2-3.3,0.5-4.9c0.2,0.9,0.7,1.8,1.2,2.4c-0.1,0.8-0.1,1.7-0.1,2.5
			c0,4.4,1.1,8.5,3,12.1h0.4c-2-3.6-3.1-7.7-3.1-12.1c0-0.6,0-1.2,0.1-1.8c0.2,2.5,1.5,3.7,2,4.1c-0.2,0.6-0.1,1.1-0.1,1.1
			c-0.1,0.3-0.2,0.7-0.2,1.1c0,1,0.6,3.3,2.3,3.3c1.5,0,2.6-1.6,4.5-1.6c0,0,1,0,1.6,0c-1.1,2.2-2.2,4.2-2.9,5.9
			C9.8,43.2,9.1,44.8,9.1,44.8z M28.7,1.9c11.6,0,21.4,7.3,25.2,17.5c-0.5,0.1-1.1,0.1-1.5,0.2C48.7,10.1,39.5,3.4,28.7,3.4
			C18,3.4,8.9,10,5.2,19.3c-0.9,0.4-1.6,0.8-2.1,1.4C6.5,9.7,16.7,1.9,28.7,1.9z M52,19.6c-8.8,0.6-7.6-4.9-14.9-7.5
			c-5.2-1.9-6.6-4.7-7.6-7.2c-5.9-1.7-8.3,2.5-9.1,5.4c-0.7-0.7-1.9-1-1.9-3.4c-2.9,3.2-3.4,6.8-3.4,6.8c-2.7,1.1-3.7,2.3-4.2,3.1
			c-1.9,1-3.7,1.7-5.2,2.4c3.8-9,12.7-15.3,23.1-15.3C39.3,3.7,48.4,10.3,52,19.6z M12.3,34.5c-2.1,0-3.1,1.6-4.5,1.6
			c-1.5,0-1.9-2.2-1.9-3c0-0.4,0.1-0.8,0.2-1c0,0-0.1-0.7,0.1-1.2c0,0-2.1-1.3-2.1-4.5c-0.5-0.7-1.6-2.2-1.6-3.6
			c0-3.3,4.7-3.7,8.6-6c0.4-0.8,1.4-1.9,4.2-3.1c0.2-1.1,0.9-3.9,2.8-6.2c0.2,2,1.5,2.3,2.4,3.2c1.2-4.3,3.8-7.1,8.7-5.7
			c1.9,4.8,5.2,6.3,7.8,7.3c7.8,2.9,5.7,9,17.1,7.3c0,0-1.6,2.4-5.6,3.5c-0.7,1-2.1,2.6-4,3.8c0.9-0.2,1.6-0.4,1.6-0.4
			s-1.4,2.6-3.8,4.3c0.7-0.2,1.2-0.3,1.2-0.3s-1.2,2.9-4.4,4.6c0.5,0.1,0.9,0.3,1.1,0.4c-0.8,0.8-3.5,3.5-5.3,3.5
			c-0.7,0-2.4,4.8-6.9,4.8c-3.2,0-5.2-2.1-9.8-2.1c-3.3,0-8.4,2.3-8.4,2.3s2-4.6,4.6-9.6L12.3,34.5L12.3,34.5z"/>
		<path class="st2" d="M18.2,40.3c4.8,0,7.1,2.1,9.8,2.1c4,0,4.9-4.8,6.9-4.8c0.5,0,1.5-0.7,2.3-1.3c-4.9-0.4-4.8,3.3-9.6,3.3
			c-3.5,0-4.9-2.6-7-2.6c-5,0-7.3,2.9-8,4.3C13.9,41,16.3,40.3,18.2,40.3z"/>
		<path class="st2" d="M34.7,31.6c-1,0-2.9,1.5-5.9,1.5c-3.2,0-4.3-2.3-5.9-2.3c-1.8,0-4.3,1-5.4,1.5c-0.8,1.4-1.6,2.9-2.4,4.5
			c1.3-0.7,3.1-1.4,5.7-1.4c2.9,0,4.1,2.6,7,2.6c3.1,0,4.6-3,6.6-3c3,0,4.9-1.2,5.8-2.1C39.7,33,39.1,33,38.5,33
			C36,33,34.9,31.6,34.7,31.6z"/>
		<path class="st2" d="M33.3,18.8c7.7,0,6.6,3.5,11.1,3.5c2.1,0,3.9-0.5,5.2-1c-7.4-0.6-7.2-5.4-13-7.6c-4.2-1.6-6.9-3.9-8.3-7.4
			c-4.9-1-6.4,3.7-6.9,8.4c0.7-0.4,1.7-0.7,2.8-0.7C28.2,14.1,26.8,18.8,33.3,18.8z"/>
		<path class="st2" d="M24.1,21.9c1.8,0,2.7,2.8,6,2.8c1.5,0,2.5-0.3,4.2-0.3c3.8,0,4.6,2.2,6.3,2.2c2.4,0,4.3-1.5,5.4-2.6
			c-0.5,0-1.1,0.1-1.6,0.1c-5.4,0-4-3.5-11.1-3.5s-6.7-4.7-9.1-4.7c-1.1,0-2.3,0.6-3,1.1c0,0.3,0,1.1,0,1.1c0,1.9,0.2,4,0.3,5.2
			C22.5,22.4,23.3,21.9,24.1,21.9z"/>
		<path class="st2" d="M22.8,28.8c2.6,0,3.3,2.3,5.9,2.3s4.4-1.5,6-1.5c1.1,0,1.6,1.2,3.7,1.2c1.8,0,3.4-1.2,4.2-2
			c-4.6,0.5-4.4-2.5-8.3-2.5c-1.7,0-2.5,0.3-4.2,0.3c-3.7,0-5.6-2.8-6-2.8c-0.3,0-1.7,0.4-5.1,5.8C20.1,29.2,21.5,28.8,22.8,28.8z"
			/>
		<path class="st2" d="M20.3,25.2c-0.2-1.7-0.6-4.3-0.6-7c0-1.8,0.1-3.6,0.4-5.3c-1.8,0-2.9,1.6-3.5,1.8c-4.5,1.6-4.6,3.2-4.6,3.2
			c-4.6,2.6-8.4,3-8.4,5.2c0,1.4,1.6,3.2,1.6,3.2S4.6,31,10.4,31c1.1,0,2.8-0.1,2.8-0.1s-0.5,0.8-1.4,0.8c-0.7,0-2-0.7-3.9-0.7
			c-1.2,0-0.7,1.3-0.7,1.3s-0.3,0.3-0.3,0.9c0,0.6,0.4,1.9,0.8,1.9c0.9,0,2.1-1.6,4.5-1.6H15C16.7,30.3,18.6,27.3,20.3,25.2z
			 M12.2,19.8c0,0,0.1-2.1,2.2-2.1c0.9,0,1.7,1.1,0.3,1.1C13.3,18.8,12.2,19.8,12.2,19.8z"/>
		<path class="st2" d="M18,9.9c-0.8,1.4-1.2,2.7-1.4,3.2c0.6-0.5,1.8-1.3,3.1-1.5C19.2,11,18.4,10.8,18,9.9z"/>
	</g>
</g>
</svg>
