<svg fill="none" height="442" viewBox="0 0 374 442" width="374" xmlns="http://www.w3.org/2000/svg"><path d="m201 166.5 59.1 19.2s13 7 12.3 13.8-56.8 86.6-64.4 87.4-16.7-8.9-16.7-8.9l-34-52.2z" fill="#ccc" stroke="#000" stroke-linecap="round" stroke-linejoin="round" stroke-width="3.25"/><path d="m164.2 337.9c-6 5.8-13.1 10.2-20.8 13-2-3.5-4.5-7.6-7.3-12.4-10.2-17.1-7.1-30.8-3-40s18-25.3 18-25.3-21.5.5-26.6 3.9c-4.6 3-5.3 19.9-6.2 37.4-7.4.7-14.9-.1-21.9999-2.2.2-2.6.2-5.1.3-7.2.1-8.9-3.8-38.9 2.7-49.2 6.4999-10.3 54.1999-23.4 54.1999-23.4s42.5 19.3 46.6 28.1-35.4 46.9-39.8 57.3c-2 4.2.3 12 3.9 20z" fill="#ccc" stroke="#000" stroke-linecap="round" stroke-linejoin="round" stroke-width="3.25"/><path d="m184.1 169.9c-9.8 9.9-34.7 54.7-37.5 63.8s38.9 38.2 48.2 38.2 37.4-62.6 37.3-68.5c0-7.6-36.5-45.1-48-33.5z" fill="#ccc" stroke="#000" stroke-linecap="round" stroke-linejoin="round" stroke-width="3.25"/><path d="m217.5 221.6c.9 3.2.4 9 .4 9 .7 6.4-24.3 4.5-31.2 6.3-9.8 2.5-7.9 17 1.7 16.8 6.4-.2 45.3 8 49.1-16.1 1.7-10.5-5-30.6-6.5-35.5-1-2.9-4-4.7-7.1-4.2l-10.3 1.8c-3.6.7-3.8 1.1-3.2 5.8" fill="#ccc"/><path d="m217.5 221.6c.9 3.2.4 9 .4 9 .7 6.4-24.3 4.5-31.2 6.3-9.8 2.5-7.9 17 1.7 16.8 6.4-.2 45.3 8 49.1-16.1 1.7-10.5-5-30.6-6.5-35.5-1-2.9-4-4.7-7.1-4.2l-10.3 1.8c-3.6.7-3.8 1.1-3.2 5.8" stroke="#000" stroke-linecap="round" stroke-linejoin="round" stroke-width="3.25"/><path d="m200.2 234.2s-2.3 3.7-2.1 10.1c.2 3.5 1.5 6.9 3.7 9.7 0 0-11.7 1.4-16.8 1.4-9.9 0-13.8-16.7-.5-19.6 9.9-2.2 15.7-1.6 15.7-1.6z" fill="#fff" stroke="#000" stroke-linecap="round" stroke-linejoin="round" stroke-width="3.25"/><path d="m184.3 171.4c-1.1-2.7-3.4-3.3-6.2-2.4-4.9 1.5-16.2 6.9-26.2 10.6-23.2 8.8 14.1 47.9 17.5 53.3 5.2 8.1 18.3 1.5 14.8-8.1-2.4-6.8-17.6-21.9-17.6-28.3 0-3.7 7.6-7.8 11.9-8.5" fill="#ccc"/><g stroke-linecap="round" stroke-linejoin="round" stroke-width="3.25"><path d="m184.3 171.4c-1.1-2.7-3.4-3.3-6.2-2.4-4.9 1.5-16.2 6.9-26.2 10.6-23.2 8.8 14.1 47.9 17.5 53.3 5.2 8.1 18.3 1.5 14.8-8.1-2.4-6.8-17.6-21.9-17.6-28.3 0-3.7 7.6-7.8 11.9-8.5" stroke="#000"/><path d="m222.2 206.7c21.65 0 39.2-17.55 39.2-39.2s-17.55-39.2-39.2-39.2-39.2 17.55-39.2 39.2 17.55 39.2 39.2 39.2z" fill="#ccc" stroke="#000"/><path d="m218.4 199.5c19.22 0 34.8-15.581 34.8-34.8 0-19.22-15.58-34.8-34.8-34.8-19.219 0-34.8 15.58-34.8 34.8 0 19.219 15.581 34.8 34.8 34.8z" stroke="#000"/><path d="m196.9 154.1c2.5-9.9 12.6-15.9 22.5-13.4" stroke="#fff"/><path d="m255.7 159.6 16.3-17.4" stroke="#000"/><path d="m261.8 170.8s27.6-9 29.8 0-25.1 8.7-12.8 18.3c15.2 11.9 6.7 46.3-7.8 50.1-14.8 3.9-15.6-12.1-15.6-12.1" stroke="#000"/><path d="m162.4 336.3c-6 5.8-13.3 10.3-21.2 13 0 0 8.1 9.6 5.5 17.3s-15.1 24.4-6.1 33.1c9 8.8 21.2-7.2 26.8-14.8 5.9-8 13.4-18.6 12.6-23.1-.8-5.2-15-28.1-17.6-25.5z" fill="#fff" stroke="#000"/><path d="m183.8 169.1s12.4 2.5 13.7 7.9 4.7 10.3 7.6 12.6 11.9 3.8 13.2 3.8 7.6 3.4 7.9 4.9-19.5 4.3-32.1-9-10.3-20.2-10.3-20.2z" fill="#ccc" stroke="#000"/><path d="m217.9 194.1c9.776 0 17.7-7.925 17.7-17.7s-7.924-17.7-17.7-17.7c-9.775 0-17.7 7.925-17.7 17.7s7.925 17.7 17.7 17.7z" fill="#fff" stroke="#000"/><path d="m202.8 169.5s19.7 5.9 24.4 1.5c0 0 5.4 10.5.3 15.5s-8.6 6.9-5.1 10.4c5.7 5.6 25.9-15.5 9.4-32s-49.1 2.6-41.1 10.6c7.5 7.4 12.1-6 12.1-6z" fill="#000" stroke="#000"/><path d="m215.3 252c18.8-4.7 30.3-23.7 25.6-42.5s-23.7-30.3-42.5-25.6c-11.4 2.8-20.6 11.1-24.6 22.2-4 4-8.6 5.3-11.7 9.9-3.5 5.2-1.3 12.2-.9 13.6s1.5 8.2 7 11.1c4.9 2.6 9.5 1.6 14.9 3.3 8.7 7.8 20.8 10.8 32.2 8z" fill="#eb0028" stroke="#000"/><path d="m162.6 215.2 6.4 25.8-8.8 2.2c-7.1 1.8-14.3-2.6-16.1-9.7s2.6-14.3 9.7-16.1z" fill="#eb0028" stroke="#000"/><path d="m165 225.2c10-2.5 33-10.5 34.8-15.5s-3.5-7.9-6.1-1.5-.3 21.9 6.1 24.5 9.9-3.2 4.5-5-29.5 0-37.6 2.8" stroke="#000"/></g><path d="m165.5 242.2s-6.7-7.4-7.7-25.6z" fill="#eb0028"/><path d="m165.5 242.2s-6.7-7.4-7.7-25.6" stroke="#000" stroke-linecap="round" stroke-linejoin="round" stroke-width="3.25"/><path d="m159.8 243.2s-6.8-13.4-7.3-25.3z" fill="#eb0028"/><path d="m159.8 243.2s-6.8-13.4-7.3-25.3" stroke="#000" stroke-linecap="round" stroke-linejoin="round" stroke-width="3.25"/><path d="m201 237.3s-3 3.2-4.1 9.4c-.9 5.6 2.3 8 2.3 8s-12.3 1.3-17.3.3c-9.7-2-10.2-19.2 3.4-19.3 10-.1 15.7 1.6 15.7 1.6z" fill="#fff" stroke="#000" stroke-linecap="round" stroke-linejoin="round" stroke-width="3.25"/><path d="m237.4 237.6c-3.8 24-42.7 15.9-49.1 16.1-9.6.3-11.5-14.2-1.7-16.8 7-1.8 8.1-.4 15.9.9 7.4 1.2 15.6 2.9 24.9 1.9 2.4-.3 10-2.1 10-2.1z" fill="#ccc" stroke="#000" stroke-linecap="round" stroke-linejoin="round" stroke-width="3.25"/><path d="m201 237.3s-3 3.2-4.1 9.4c-.9 5.6 2.3 8 2.3 8s-12.3 1.3-17.3.3c-9.7-2-10.2-19.2 3.4-19.3 10-.1 15.7 1.6 15.7 1.6z" fill="#fff" stroke="#000" stroke-linecap="round" stroke-linejoin="round" stroke-width="3.25"/><path d="m166.9 200.9 7.1 9.2s-6.2 8-10.5 9.8-8.9-5.9-8.9-5.9z" fill="#ccc"/><path d="m158.1 220.5s4.4.3 9.9-2.8c3-1.8 5.4-4.6 6.8-7.8 0 0 6.7 9.6 9.1 14.2 4.6 8.7-8.3 20.1-17.1 9.6-6.5-7.8-8.7-13.2-8.7-13.2z" fill="#fff" stroke="#000" stroke-linecap="round" stroke-linejoin="round" stroke-width="3.25"/><path d="m184.3 224.9c-2.4-6.8-17.6-21.9-17.6-28.3 0-3.7 7.6-7.8 11.9-8.5" stroke="#000" stroke-linecap="round" stroke-linejoin="round" stroke-width="3.25"/><path d="m178.1 169c-4.9 1.5-16.2 6.9-26.2 10.6-23.2 8.8 14.1 47.9 17.5 53.3 5.2 8.1 18.3 1.5 14.8-8.1" stroke="#000" stroke-linecap="round" stroke-linejoin="round" stroke-width="3.25"/><path d="m272.6 143.9c1.27 0 2.3-1.03 2.3-2.3s-1.03-2.3-2.3-2.3-2.3 1.03-2.3 2.3 1.03 2.3 2.3 2.3z" fill="#000" stroke="#000" stroke-linecap="round" stroke-linejoin="round" stroke-width="3.25"/><path d="m118.9 312.7c-8.4-.2-16.6-2.3-24.1002-6.1 0 0-1.3 12.5-8.5 16s-28 6.2-27.9 18.8 20 10.2 29.4 8.8c9.9-1.4 22.7002-3.4 25.3002-7.1 2.9-4.2 9.4-30.4 5.8-30.4z" fill="#fff" stroke="#000" stroke-linecap="round" stroke-linejoin="round" stroke-width="3.25"/><path d="m276.1 383.4c-14 4.5-19.1 9.6-23.6 23.6-4.5-14-9.6-19.1-23.6-23.6 14-4.5 19.1-9.5 23.6-23.6 4.5 14.1 9.6 19.1 23.6 23.6z" fill="#eb0028" stroke="#000" stroke-linecap="round" stroke-linejoin="round" stroke-width="3.25"/><path d="m90.5999 178.8c-14 4.5-19.1 9.6-23.6 23.6-4.5-14-9.6-19.1-23.6-23.6 14-4.5 19.1-9.5 23.6-23.6 4.6 14.1 9.6 19.1 23.6 23.6z" fill="#eb0028" stroke="#000" stroke-linecap="round" stroke-linejoin="round" stroke-width="3.25"/><path d="m115.6 65c-7.7 2.5-10.5 5.3-13 13-2.5-7.7-5.2999-10.5-12.9999-13 7.7-2.5 10.4999-5.2 12.9999-13 2.5 7.8 5.3 10.6 13 13z" fill="#eb0028" stroke="#000" stroke-linecap="round" stroke-linejoin="round" stroke-width="3.25"/><path d="m320.2 42.8999c-7.7 2.5-10.5 5.3-13 13-2.5-7.7-5.3-10.5-13-13 7.7-2.5 10.5-5.2 13-13 2.5 7.7 5.3 10.5 13 13z" fill="#eb0028" stroke="#000" stroke-linecap="round" stroke-linejoin="round" stroke-width="3.25"/></svg>