<svg xmlns="http://www.w3.org/2000/svg" viewBox="0 0 825 230"><g fill="#231F20"><path d="M714.8 105.7v5c-3.2-4-8.4-6.1-14.9-6.1-12.2 0-20.4 9.4-20.4 23.3 0 14.4 8 23.3 21 23.3 5.7 0 11-2.3 14.4-6.1v3.3c0 11.1-4.7 16.5-14.5 16.5-6.6 0-11.3-1.6-14.1-3l-1.1-.5v7.7l.5.2c3 1.2 7.9 2.7 15.1 2.7 14.4 0 22.6-8.8 22.6-24.2v-42.2h-8.6zm-14 38.3c-11.3 0-12.2-12.3-12.2-16.1 0-3.8.9-16.1 12.2-16.1 9.2 0 14 8.1 14 16.1 0 8-4.8 16.1-14 16.1zM771.1 127.3c0-14.7-6.9-22.7-19.5-22.7-6.4 0-11.7 2.3-15.5 6.5-3.7 4.2-5.7 10-5.7 16.7 0 14.1 8.6 23.3 22 23.3 8.1 0 12-1.6 15-3l.4-.2v-7.6l-1.1.6c-4 2.2-8.3 3.2-13.4 3.2-9.6 0-13.1-7.8-13.8-12.9H771v-3.9zm-31.4-2.9c1-8.8 4.8-13.1 11.6-13.1s10.3 4.3 10.8 13.1h-22.4zM796.1 123.6c-7.2-1.7-10.3-3.6-10.3-6.4 0-3.9 2.9-5.9 8.7-5.9 4.6 0 8.2 1.5 10.2 2.3.5.2.9.4 1.3.5l.6.2 2.7-5.7-.6-.3c-4.3-2.4-9.3-3.7-14.1-3.7-8.5 0-17 4.1-17 13.4 0 8.8 7.5 10.8 15.5 13 6.2 1.6 9 2.9 9 6.9 0 4.7-4.9 6.3-9.1 6.3-5 0-9.8-1.5-14.6-4.6l-1.1-.7v8.2l.4.2c4.8 2.6 10.2 3.8 16.1 3.8 7.8 0 17-3.7 17-14.2-.2-8.3-6-11.4-14.7-13.3z"/></g><path fill="#231F20" d="M348.3 104.6c-5.9 0-11.3 2.5-14.7 6.7-1-4.6-4.4-5.6-7.2-5.6-1.6 0-3.3.5-5.2 1.3v6c.7-.4 1.5-.7 2.4-.7 1 0 1.8.2 1.8 2.8v55h8.6V145c3.2 4 8.2 6.1 15 6.1 11.7 0 19.8-9.6 19.8-23.3.1-14.3-7.8-23.2-20.5-23.2zm-.8 39.4c-9.3 0-13.5-8.4-13.5-16.1 0-8 4.7-16.1 13.7-16.1 11.1 0 12 12.3 12 16.1 0 7.7-3.2 16.1-12.2 16.1zM532.1 139.3l-.1.1c-4 2.1-8.9 4.3-16.8 4.3-13.4 0-22.8-11-22.8-26.9 0-16.2 9-27 22.5-27 6.5 0 10.9 1.5 15.2 3.2l.7.3 2.8-7.1-.7-.3c-4.2-1.8-10.2-3.9-18.6-3.9-9.2 0-17.1 3.4-22.9 9.7-5.8 6.3-8.8 15-8.8 25.1 0 20.8 12.7 34.8 31.5 34.8 7 0 13-1.3 18-3.8v-8.5zM468.4 142.6c-.8.6-2.3 1.3-3.1 1.3-.7 0-1-.1-1.2-.3-.3-.3-.6-1.2-.5-2.4v-20c.1-5.2-1.2-9.3-4-12.2-2.9-2.9-7.1-4.4-12.6-4.4-6.3 0-10.9 3.3-13.6 6.9-.6-2.9-2.1-5.8-6.9-5.8-1.8 0-3.8.6-5.8 1.6v6.1c.8-.5 1.9-1.1 3.1-1.1 1 0 1.8.2 1.8 2.8V150h8.5v-21.6c0-3.9.9-16.5 12.2-16.5 2.6 0 4.6.7 6 2.2 1.7 1.8 2.6 4.6 2.6 8.4v19c-.1 3.5.6 5.8 2.1 7.3 1.3 1.3 3.1 1.9 5.5 1.9 2 0 4-.5 6-1.5v-6.6zM604.7 142.3l-.2-.3-.6.5c-.8.6-2.4 1.3-3.2 1.3-1.2 0-1.7 0-1.7-2.7v-55c0-5.1-2.7-8-7.5-8-2 0-4.5.8-6.9 2.1v6.1l.1.1.6-.5c.8-.6 2-1.2 3.2-1.2 1 0 1.8.2 1.8 2.8v53.8c0 4.5.9 9.2 7.5 9.2 2.3 0 4.7-.7 6.9-2v-6.2zM308.2 92c-5.5-6.5-13.7-10-23.4-10-9.8 0-17.9 3.5-23.4 10-5.2 6.2-8 14.8-8 24.8 0 10.1 2.8 18.7 8 24.8 5.5 6.5 13.7 10 23.4 10 9.8 0 17.9-3.5 23.4-10 5.2-6.2 8-14.7 8-24.8 0-10-2.8-18.6-8-24.8zm-23.4 52.2c-13.5 0-21.6-10.2-21.6-27.3s8.1-27.3 21.6-27.3c13.5 0 21.6 10.2 21.6 27.3 0 17-8.1 27.3-21.6 27.3zM415.3 127.3c0-14.7-6.9-22.7-19.5-22.7-6.3 0-11.7 2.3-15.5 6.5-3.7 4.2-5.7 10-5.7 16.7 0 14.1 8.6 23.3 22 23.3 8.1 0 12-1.6 15-3l.4-.2v-7.6l-1.1.6c-4 2.2-8.3 3.2-13.4 3.2-9.6 0-13.1-7.8-13.8-12.9h31.5v-3.9zm-31.5-2.9c1-8.8 4.8-13.1 11.7-13.1 6.8 0 10.3 4.3 10.8 13.1h-22.5zM559.2 104.6c-13.3 0-21.8 9.1-21.8 23.3 0 14.1 8.6 23.3 21.8 23.3 13.3 0 21.8-9.1 21.8-23.3 0-14.2-8.5-23.3-21.8-23.3zm0 39.6c-9.5 0-12.8-8.8-12.8-16.4 0-7.6 3.4-16.4 12.8-16.4 9.5 0 12.8 8.8 12.8 16.4 0 7.6-3.3 16.4-12.8 16.4zM627.3 142.3l-.2-.3-.6.5c-.8.6-2.4 1.3-3.2 1.3-1.2 0-1.7 0-1.7-2.7v-55c0-5.1-2.7-8-7.5-8-2 0-4.5.8-6.9 2.1v6.1l.1.1.6-.5c.8-.6 2-1.2 3.2-1.2 1 0 1.8.2 1.8 2.8v53.8c0 4.5.9 9.2 7.5 9.2 2.3 0 4.7-.7 6.9-2v-6.2zM673 127.3c0-14.7-6.9-22.7-19.5-22.7-6.3 0-11.7 2.3-15.5 6.5-3.7 4.2-5.7 10-5.7 16.7 0 14.1 8.6 23.3 22 23.3 8.1 0 12-1.6 15-3l.4-.2v-7.6l-1.1.6c-4 2.2-8.3 3.2-13.4 3.2-9.6 0-13.1-7.8-13.8-12.9H673v-3.9zm-31.4-2.9c1-8.8 4.8-13.1 11.7-13.1 6.8 0 10.3 4.3 10.8 13.1h-22.5z"/><path fill="#2C9951" d="M60.5 174c-20.9-6.4-38.5-20.6-49.4-39.1 7.9 45.4 45.1 80.8 91.5 85.9-19.3-9.8-34.4-26.5-42.1-46.8zM167.5 59.8c20.9 6.5 38.5 20.6 49.4 39.1-7.8-45.5-45.1-80.9-91.5-85.9 19.3 9.7 34.4 26.4 42.1 46.8z"/><linearGradient id="a" gradientUnits="userSpaceOnUse" x1="9.526" y1="93.163" x2="167.539" y2="93.163"><stop offset=".098" stop-color="#1cb2c3"/><stop offset=".239" stop-color="#49b6ac"/><stop offset=".465" stop-color="#6cbc8b"/><stop offset=".66" stop-color="#80c26e"/><stop offset=".814" stop-color="#8bc65a"/><stop offset=".908" stop-color="#8fc853"/></linearGradient><path fill="url(#a)" d="M60.5 174c-3.7-9.6-5.7-20.1-5.7-31 0-48.1 39-87.1 87.1-87.1 8.9 0 17.6 1.3 25.7 3.8-7.7-20.3-22.9-37-42.1-46.8-3.7-.4-7.5-.6-11.4-.6C56.3 12.4 9.5 59.1 9.5 116.9c0 6.1.5 12.2 1.5 18 11 18.5 28.5 32.6 49.5 39.1z"/><linearGradient id="b" gradientUnits="userSpaceOnUse" x1="89.356" y1="213.603" x2="212.486" y2="90.472"><stop offset="0" stop-color="#8fc853"/><stop offset=".391" stop-color="#6ebd88"/><stop offset=".908" stop-color="#1cb2c3"/></linearGradient><path fill="url(#b)" d="M218.5 116.9c0-6.1-.5-12.1-1.5-18-10.9-18.5-28.5-32.7-49.4-39.1 3.7 9.6 5.7 20.1 5.7 31 0 48.1-39 87.1-87.1 87.1-8.9 0-17.6-1.3-25.7-3.8 7.7 20.3 22.9 37 42.1 46.8 3.8.4 7.6.6 11.4.6 57.7-.2 104.5-46.9 104.5-104.6z"/></svg>